<svg height="768pt" viewBox="0 0 960 768" width="960pt" xmlns="http://www.w3.org/2000/svg"><path d="m385.88 158.92c18.67-7.43 40.04-7.66 58.9-.77 13.69 4.9 25.84 13.66 35.22 24.72 10.57-12.52 24.78-22 40.58-26.46 17.73-5.13 37.17-4.19 54.26 2.79 18.56 7.48 34.17 21.93 43.09 39.83 6.6 13.13 9.54 28.04 8.58 42.7-.94 17.86-7.2 35.12-16.41 50.35-10.3 17.12-23.95 31.92-38.24 45.77-12.98 12.42-26.57 24.2-40.71 35.28-15.45 11.89-30.84 23.84-46.31 35.7-3.2 2.71-7.98 1.92-10.86-.86-21.8-17.19-44.38-33.43-65.43-51.56-17.4-15.19-34.39-31.08-48.5-49.45-12.97-16.91-23.11-36.61-25.87-57.96-2.51-17.67.38-36.18 8.9-51.93 9.18-17.24 24.61-31.03 42.8-38.15m-8.12 21.82c-14.88 10.29-25.32 26.78-28.12 44.67-2.7 16.84 1.14 34.22 8.55 49.42 10.01 20.44 25.67 37.39 41.93 53.04 24.75 23.93 52.78 44.02 79.88 65.13 35.11-27.19 71.68-53.28 100.88-87.09 11.76-13.82 22.03-29.4 27.07-46.99 3.9-13.65 4.63-28.44.44-42.11-5-16.86-16.89-31.51-32.33-39.91-12.7-7.01-27.72-9.73-42.07-7.57-18.21 2.51-35.11 12.98-45.54 28.1-1.64 2.28-3.05 5.15-5.96 6-3.47 1.24-7.5-.4-9.28-3.58-10.37-16.35-27.99-27.92-47.21-30.52-16.76-2.55-34.39 1.67-48.24 11.41z"/><path d="m219.56 218.56c3.18-8.45 12.22-14.15 21.21-13.41 9.23.48 17.58 7.67 19.41 16.74 8.18 37.13 16.53 74.23 24.69 111.37 1.53 9.53 4.9 19.1 11.52 26.33 4.84 5.23 9.63 10.52 14.53 15.7 2.91-6.2 7.79-11.47 14.05-14.36 10.91-5.35 25.06-3.26 33.74 5.34 23.36 23.32 46.67 46.67 70.02 70.01 6.09 6.24 12.68 12.06 17.84 19.14 15.53 20.67 21.31 48.3 15.23 73.44-6.61 26.76-13.1 53.55-19.79 80.28-1.2 5.81-9.56 7.72-13.22 3.09-2.97-3.06-1.73-7.47-.73-11.07 6.33-25.65 12.67-51.29 18.92-76.96 5.36-23.45-1.95-49.24-18.71-66.47-26.46-26.55-53-53.01-79.48-79.53-5.75-6.68-17.49-6.25-22.4 1.15-3.31 4.98-1.03 11.5 2.62 15.62 15.99 17.35 31.87 34.8 47.92 52.1 2.57 2.44 4.91 5.83 3.77 9.56-1.16 5.52-9.01 7.63-12.8 3.45-27.93-30.06-55.64-60.35-83.42-90.56-8.24-9.22-12.82-21.16-14.78-33.25-8.07-36.63-16.3-73.21-24.36-109.84-.35-2.53-1.87-5.05-4.5-5.68-4.15-1.27-8.28 3.01-7.19 7.14 5.51 51.73 11.03 103.46 16.55 155.19.72 7.52 3.32 14.88 7.63 21.09 2.92 4.33 6.82 7.85 10.47 11.53 9.83 9.84 19.67 19.66 29.5 29.5 6.11 6.22 12.66 12.1 17.75 19.23 15.62 21.03 21.01 49.17 14.39 74.5-6.25 23.46-12.41 46.95-18.73 70.39-1.17 4.94-7.76 7.19-11.77 4.16-2.97-1.95-3.95-5.86-2.88-9.15 6.25-23.61 12.59-47.21 18.77-70.84 5.7-23.44-1.36-49.39-18-66.81-12.93-13.08-25.99-26.01-38.97-39.03-3.97-4.04-8.2-7.85-11.61-12.39-6.47-8.46-10.56-18.69-11.79-29.26-5.42-50.66-10.81-101.33-16.22-151.99-.63-5.13-1.29-10.56.82-15.45z"/><path d="m699.82 221.88c1.98-10.04 12.02-17.6 22.22-16.73 11.42.44 20.99 11.39 19.81 22.79-5.45 52.35-11.16 104.68-16.68 157.03-1.35 13.53-7.42 26.53-17.02 36.16-14.99 15.02-30.03 29.98-44.99 45.03-16.98 17.44-24.25 43.65-18.49 67.33 6.18 23.62 12.52 47.2 18.76 70.81 1.07 3.29.11 7.22-2.86 9.18-4.07 3.05-10.7.74-11.82-4.27-6.22-23.1-12.28-46.24-18.45-69.35-4.8-17.92-3.84-37.32 2.82-54.63 4.64-12.29 12.15-23.42 21.58-32.54 14.01-13.98 27.99-28 42.01-41.99 7.24-7.12 11.93-16.75 13-26.85 5.56-51.99 11.1-103.97 16.64-155.96.7-3.13-1.27-6.56-4.47-7.2-3.26-.81-6.61 1.73-7.03 4.99-8.75 39.6-17.69 79.16-26.31 118.79-2.37 8.94-6.48 17.5-12.55 24.52-27.75 30.25-55.53 60.46-83.38 90.61-2.96 3.68-9.2 3.54-11.99-.25-2.49-3.18-1.9-8 1.02-10.69 16.35-17.67 32.55-35.48 48.89-53.16 3.04-3.3 5.24-7.84 4.57-12.41-1.1-5.95-7.36-9.72-13.1-9.67-4.1-.08-7.99 1.86-10.78 4.77-26.49 26.53-53.03 52.99-79.49 79.54-17.77 18.2-24.75 45.97-17.77 70.43 6.28 25.71 12.7 51.38 18.93 77.1 1.43 4.76-2.88 10.02-7.81 9.58-3.66-.06-6.77-3.02-7.35-6.57-6.58-26.76-13.18-53.51-19.72-80.28-5.77-24.9.08-52.14 15.42-72.56 4.58-6.33 10.37-11.62 15.84-17.15 23.49-23.52 47.02-46.99 70.5-70.52 5.66-6.1 13.84-9.96 22.23-9.7 11.43-.35 22.45 6.82 27.08 17.23 4.75-5 9.36-10.13 14.06-15.18 5.15-5.46 8.52-12.41 10.45-19.62 8.55-39.57 17.55-79.06 26.23-118.61z"/></svg>