<?xml version="1.0" encoding="UTF-8" ?>
<!DOCTYPE svg PUBLIC "-//W3C//DTD SVG 1.1//EN" "http://www.w3.org/Graphics/SVG/1.1/DTD/svg11.dtd">
<svg width="960pt" height="768pt" viewBox="0 0 960 768" version="1.1" xmlns="http://www.w3.org/2000/svg">
<g id="#ffffffff">
</g>
<g id="#000000ff">
<path fill="#000000" opacity="1.00" d=" M 385.88 158.92 C 404.55 151.49 425.92 151.26 444.78 158.15 C 458.47 163.05 470.62 171.81 480.00 182.87 C 490.57 170.35 504.78 160.87 520.58 156.41 C 538.31 151.28 557.75 152.22 574.84 159.20 C 593.40 166.68 609.01 181.13 617.93 199.03 C 624.53 212.16 627.47 227.07 626.51 241.73 C 625.57 259.59 619.31 276.85 610.10 292.08 C 599.80 309.20 586.15 324.00 571.86 337.85 C 558.88 350.27 545.29 362.05 531.15 373.13 C 515.70 385.02 500.31 396.97 484.84 408.83 C 481.64 411.54 476.86 410.75 473.98 407.97 C 452.18 390.78 429.60 374.54 408.55 356.41 C 391.15 341.22 374.16 325.33 360.05 306.96 C 347.08 290.05 336.94 270.35 334.18 249.00 C 331.67 231.33 334.56 212.82 343.08 197.07 C 352.26 179.83 367.69 166.04 385.88 158.92 M 377.76 180.74 C 362.88 191.03 352.44 207.52 349.64 225.41 C 346.94 242.25 350.78 259.63 358.19 274.83 C 368.20 295.27 383.86 312.22 400.12 327.87 C 424.87 351.80 452.90 371.89 480.00 393.00 C 515.11 365.81 551.68 339.72 580.88 305.91 C 592.64 292.09 602.91 276.51 607.95 258.92 C 611.85 245.27 612.58 230.48 608.39 216.81 C 603.39 199.95 591.50 185.30 576.06 176.90 C 563.36 169.89 548.34 167.17 533.99 169.33 C 515.78 171.84 498.88 182.31 488.45 197.43 C 486.81 199.71 485.40 202.58 482.49 203.43 C 479.02 204.67 474.99 203.03 473.21 199.85 C 462.84 183.50 445.22 171.93 426.00 169.33 C 409.24 166.78 391.61 171.00 377.76 180.74 Z" />
<path fill="#000000" opacity="1.00" d=" M 219.56 218.56 C 222.74 210.11 231.78 204.41 240.77 205.15 C 250.00 205.63 258.35 212.82 260.18 221.89 C 268.36 259.02 276.71 296.12 284.87 333.26 C 286.40 342.79 289.77 352.36 296.39 359.59 C 301.23 364.82 306.02 370.11 310.92 375.29 C 313.83 369.09 318.71 363.82 324.97 360.93 C 335.88 355.58 350.03 357.67 358.71 366.27 C 382.07 389.59 405.38 412.94 428.73 436.28 C 434.82 442.52 441.41 448.34 446.57 455.42 C 462.10 476.09 467.88 503.72 461.80 528.86 C 455.19 555.62 448.70 582.41 442.01 609.14 C 440.81 614.95 432.45 616.86 428.79 612.23 C 425.82 609.17 427.06 604.76 428.06 601.16 C 434.39 575.51 440.73 549.87 446.98 524.20 C 452.34 500.75 445.03 474.96 428.27 457.73 C 401.81 431.18 375.27 404.72 348.79 378.20 C 343.04 371.52 331.30 371.95 326.39 379.35 C 323.08 384.33 325.36 390.85 329.01 394.97 C 345.00 412.32 360.88 429.77 376.93 447.07 C 379.50 449.51 381.84 452.90 380.70 456.63 C 379.54 462.15 371.69 464.26 367.90 460.08 C 339.97 430.02 312.26 399.73 284.48 369.52 C 276.24 360.30 271.66 348.36 269.70 336.27 C 261.63 299.64 253.40 263.06 245.34 226.43 C 244.99 223.90 243.47 221.38 240.84 220.75 C 236.69 219.48 232.56 223.76 233.65 227.89 C 239.16 279.62 244.68 331.35 250.20 383.08 C 250.92 390.60 253.52 397.96 257.83 404.17 C 260.75 408.50 264.65 412.02 268.30 415.70 C 278.13 425.54 287.97 435.36 297.80 445.20 C 303.91 451.42 310.46 457.30 315.55 464.43 C 331.17 485.46 336.56 513.60 329.94 538.93 C 323.69 562.39 317.53 585.88 311.21 609.32 C 310.04 614.26 303.45 616.51 299.44 613.48 C 296.47 611.53 295.49 607.62 296.56 604.33 C 302.81 580.72 309.15 557.12 315.33 533.49 C 321.03 510.05 313.97 484.10 297.33 466.68 C 284.40 453.60 271.34 440.67 258.36 427.65 C 254.39 423.61 250.16 419.80 246.75 415.26 C 240.28 406.80 236.19 396.57 234.96 386.00 C 229.54 335.34 224.15 284.67 218.74 234.01 C 218.11 228.88 217.45 223.45 219.56 218.56 Z" />
<path fill="#000000" opacity="1.00" d=" M 699.82 221.88 C 701.80 211.84 711.84 204.28 722.04 205.15 C 733.46 205.59 743.03 216.54 741.85 227.94 C 736.40 280.29 730.69 332.62 725.17 384.97 C 723.82 398.50 717.75 411.50 708.15 421.13 C 693.16 436.15 678.12 451.11 663.16 466.16 C 646.18 483.60 638.91 509.81 644.67 533.49 C 650.85 557.11 657.19 580.69 663.43 604.30 C 664.50 607.59 663.54 611.52 660.57 613.48 C 656.50 616.53 649.87 614.22 648.75 609.21 C 642.53 586.11 636.47 562.97 630.30 539.86 C 625.50 521.94 626.46 502.54 633.12 485.23 C 637.76 472.94 645.27 461.81 654.70 452.69 C 668.71 438.71 682.69 424.69 696.71 410.70 C 703.95 403.58 708.64 393.95 709.71 383.85 C 715.27 331.86 720.81 279.88 726.35 227.89 C 727.05 224.76 725.08 221.33 721.88 220.69 C 718.62 219.88 715.27 222.42 714.85 225.68 C 706.10 265.28 697.16 304.84 688.54 344.47 C 686.17 353.41 682.06 361.97 675.99 368.99 C 648.24 399.24 620.46 429.45 592.61 459.60 C 589.65 463.28 583.41 463.14 580.62 459.35 C 578.13 456.17 578.72 451.35 581.64 448.66 C 597.99 430.99 614.19 413.18 630.53 395.50 C 633.57 392.20 635.77 387.66 635.10 383.09 C 634.00 377.14 627.74 373.37 622.00 373.42 C 617.90 373.34 614.01 375.28 611.22 378.19 C 584.73 404.72 558.19 431.18 531.73 457.73 C 513.96 475.93 506.98 503.70 513.96 528.16 C 520.24 553.87 526.66 579.54 532.89 605.26 C 534.32 610.02 530.01 615.28 525.08 614.84 C 521.42 614.78 518.31 611.82 517.73 608.27 C 511.15 581.51 504.55 554.76 498.01 527.99 C 492.24 503.09 498.09 475.85 513.43 455.43 C 518.01 449.10 523.80 443.81 529.27 438.28 C 552.76 414.76 576.29 391.29 599.77 367.76 C 605.43 361.66 613.61 357.80 622.00 358.06 C 633.43 357.71 644.45 364.88 649.08 375.29 C 653.83 370.29 658.44 365.16 663.14 360.11 C 668.29 354.65 671.66 347.70 673.59 340.49 C 682.14 300.92 691.14 261.43 699.82 221.88 Z" />
</g>
</svg>
