<?xml version="1.0" encoding="UTF-8" ?>
<!DOCTYPE svg PUBLIC "-//W3C//DTD SVG 1.1//EN" "http://www.w3.org/Graphics/SVG/1.1/DTD/svg11.dtd">
<svg width="600pt" height="403pt" viewBox="0 0 600 403" version="1.1" xmlns="http://www.w3.org/2000/svg">
<g id="#ffffffff">
</g>
<g id="#232021ff">
<path fill="#232021" opacity="1.00" d=" M 267.39 0.00 L 268.76 0.00 C 282.42 21.49 291.22 45.61 299.17 69.68 C 301.02 74.91 302.09 80.46 304.69 85.40 C 307.48 89.67 312.34 92.67 313.62 97.86 C 314.93 101.83 313.64 105.92 312.58 109.78 C 309.54 107.03 305.99 104.97 302.22 103.43 C 301.22 100.75 300.09 97.98 300.35 95.05 C 300.61 91.06 302.01 87.00 300.44 83.09 C 291.45 54.65 280.58 26.77 267.39 0.00 Z" />
<path fill="#232021" opacity="1.00" d=" M 296.89 14.84 C 297.66 16.12 298.18 17.53 298.38 19.02 C 300.13 29.99 303.01 40.73 305.70 51.50 C 310.61 70.20 316.01 88.77 321.74 107.24 C 323.17 112.06 326.16 116.74 325.25 121.96 C 324.43 127.40 319.49 130.80 317.91 135.93 C 315.94 130.37 312.00 125.19 312.43 119.03 C 312.59 115.62 313.23 112.14 314.98 109.15 C 316.16 106.96 317.68 104.53 316.86 101.93 C 311.27 76.33 299.48 52.22 297.02 25.91 C 296.66 22.23 296.55 18.52 296.89 14.84 Z" />
<path fill="#232021" opacity="1.00" d=" M 257.13 28.94 C 261.93 31.51 265.35 35.93 268.82 40.01 C 283.35 58.78 289.60 82.10 297.96 103.90 C 302.29 106.93 308.14 107.94 311.33 112.58 C 309.73 117.00 309.80 121.82 310.86 126.36 C 308.00 124.45 304.92 122.89 302.13 120.87 C 298.99 118.55 297.10 114.90 296.23 111.16 C 294.08 100.51 290.48 90.22 286.61 80.10 C 281.05 65.64 273.90 51.75 264.88 39.15 C 262.45 35.63 259.38 32.59 257.13 28.94 Z" />
<path fill="#232021" opacity="1.00" d=" M 156.16 36.03 C 157.04 34.12 157.49 31.70 159.65 30.80 C 150.13 59.41 144.02 89.10 140.69 119.06 C 139.62 126.09 145.75 132.60 142.61 139.66 C 139.73 142.24 136.63 144.61 134.37 147.81 C 132.72 144.40 130.87 140.87 131.16 136.95 C 130.95 132.67 133.43 129.00 135.56 125.51 C 138.21 121.49 138.21 116.50 138.80 111.90 C 141.84 86.11 146.35 60.20 156.16 36.03 Z" />
<path fill="#232021" opacity="1.00" d=" M 540.91 40.92 C 542.66 39.26 544.37 37.37 546.79 36.70 C 539.45 45.38 531.57 53.65 524.74 62.78 C 515.50 74.72 507.01 87.21 499.11 100.06 C 497.47 102.79 495.56 105.61 495.50 108.91 C 495.26 112.96 494.31 117.29 491.32 120.23 C 487.98 121.27 484.53 122.04 481.48 123.83 C 481.36 120.24 481.27 116.43 483.10 113.20 C 485.76 107.57 492.87 106.25 495.74 100.77 C 508.70 79.39 522.63 58.20 540.91 40.92 Z" />
<path fill="#232021" opacity="1.00" d=" M 313.07 39.33 C 314.42 41.25 314.34 43.66 314.65 45.88 C 318.35 73.65 326.12 100.63 331.98 127.97 C 333.12 133.52 334.15 140.32 329.84 144.81 C 326.63 148.02 323.52 151.46 322.13 155.88 C 321.36 149.82 318.56 143.76 320.32 137.60 C 321.46 131.10 328.96 127.08 327.66 119.93 C 323.50 100.36 316.42 81.43 313.71 61.53 C 312.71 54.19 312.13 46.71 313.07 39.33 Z" />
<path fill="#232021" opacity="1.00" d=" M 512.21 52.24 C 514.03 49.08 514.98 45.32 517.66 42.71 C 510.79 69.88 491.17 91.13 479.54 116.14 C 478.45 118.65 479.42 121.39 479.79 123.94 C 480.42 126.79 480.00 129.72 479.48 132.56 C 478.50 137.92 474.28 141.73 471.54 146.21 C 470.73 140.78 467.01 135.72 468.58 130.06 C 470.05 125.46 473.38 121.78 475.60 117.55 C 487.89 95.83 500.47 74.27 512.21 52.24 Z" />
<path fill="#232021" opacity="1.00" d=" M 132.36 51.10 C 132.68 51.09 133.33 51.09 133.66 51.08 C 138.10 81.20 129.32 111.01 128.83 141.05 C 128.88 144.81 132.13 147.21 133.79 150.27 C 136.06 154.43 137.33 159.29 136.69 164.04 C 136.17 167.71 135.30 171.31 134.72 174.97 C 132.17 170.09 126.63 167.44 124.94 162.04 C 123.18 156.80 125.15 151.32 125.45 146.01 C 127.84 118.34 130.40 90.67 132.16 62.95 C 132.38 59.00 132.42 55.05 132.36 51.10 Z" />
<path fill="#232021" opacity="1.00" d=" M 263.76 54.38 C 268.35 57.29 271.73 61.72 274.95 66.03 C 284.46 79.74 289.71 95.78 294.68 111.55 C 295.73 114.59 296.27 117.91 298.23 120.55 C 301.40 124.82 307.41 125.24 310.79 129.34 C 315.87 134.13 316.24 141.43 317.89 147.78 C 314.47 143.12 308.90 141.37 303.97 138.88 C 297.52 134.83 297.19 126.49 294.83 119.98 C 288.43 97.84 279.73 75.96 265.66 57.51 C 264.96 56.50 264.32 55.46 263.76 54.38 Z" />
<path fill="#232021" opacity="1.00" d=" M 163.75 70.51 C 166.42 66.24 168.74 61.33 173.07 58.50 C 156.81 85.73 150.34 117.74 149.61 149.15 C 149.16 155.75 143.61 159.90 139.23 164.12 C 139.49 159.37 138.42 154.65 136.12 150.49 C 138.03 145.12 144.03 143.28 147.06 138.98 C 150.46 115.78 152.49 91.54 163.75 70.51 Z" />
<path fill="#232021" opacity="1.00" d=" M 412.00 60.91 C 412.35 60.80 413.05 60.58 413.40 60.46 C 405.41 86.02 400.86 112.51 397.76 139.06 C 396.39 145.75 402.34 151.94 399.36 158.59 C 396.82 160.94 394.18 163.19 392.02 165.92 C 389.54 162.00 388.42 157.11 389.73 152.58 C 391.27 147.95 395.04 144.20 395.37 139.14 C 398.26 112.63 402.12 85.85 412.00 60.91 Z" />
<path fill="#232021" opacity="1.00" d=" M 494.37 66.63 C 495.29 64.56 495.72 62.10 497.57 60.60 C 493.59 82.80 480.74 101.88 470.66 121.64 C 468.86 125.61 465.87 129.40 466.08 133.97 C 465.93 137.86 468.57 141.09 468.90 144.89 C 470.08 151.53 466.30 157.45 463.81 163.29 C 463.34 159.34 461.79 155.69 459.80 152.29 C 456.47 146.46 459.75 139.85 462.20 134.36 C 472.65 111.65 484.73 89.71 494.37 66.63 Z" />
<path fill="#232021" opacity="1.00" d=" M 531.26 74.25 C 536.10 70.41 541.20 66.37 547.29 64.78 C 544.47 67.47 541.02 69.36 538.05 71.86 C 521.53 85.37 508.71 102.83 498.32 121.34 C 496.01 125.36 494.66 130.00 491.42 133.42 C 488.20 136.83 483.32 137.43 479.17 139.16 C 481.33 135.43 481.87 131.15 482.13 126.92 C 485.02 122.64 491.39 123.97 495.24 121.31 C 506.05 104.82 516.10 87.26 531.26 74.25 Z" />
<path fill="#232021" opacity="1.00" d=" M 328.50 68.38 C 328.76 68.38 329.28 68.38 329.54 68.38 C 329.26 84.83 331.62 101.18 334.27 117.37 C 336.32 128.89 338.75 140.36 339.77 152.03 C 340.26 157.49 337.28 162.94 332.56 165.65 C 329.43 167.43 327.22 170.27 325.40 173.30 C 324.49 167.63 322.03 161.64 324.42 156.01 C 326.50 149.88 334.60 147.89 335.20 140.99 C 335.10 134.46 333.20 128.07 332.21 121.63 C 329.22 104.09 326.43 86.19 328.50 68.38 Z" />
<path fill="#232021" opacity="1.00" d=" M 120.88 77.05 C 122.59 79.75 122.71 83.02 123.28 86.08 C 126.63 108.95 123.14 132.01 122.36 154.93 C 122.32 158.12 121.91 161.51 123.32 164.50 C 125.29 169.25 130.47 171.63 132.48 176.39 C 135.72 182.24 134.52 189.10 134.90 195.48 C 133.36 193.26 131.82 190.97 129.68 189.26 C 127.03 186.96 123.58 185.29 122.10 181.91 C 119.17 175.35 120.16 167.93 119.92 160.95 C 120.60 132.99 121.75 105.00 120.88 77.05 Z" />
<path fill="#232021" opacity="1.00" d=" M 390.44 80.20 C 390.73 80.20 391.31 80.21 391.60 80.21 C 395.36 106.25 388.05 132.00 387.26 157.95 C 387.12 160.15 387.17 162.55 388.73 164.30 C 392.74 169.20 395.07 175.86 393.69 182.17 C 393.20 184.91 392.59 187.63 392.13 190.37 C 388.48 185.71 382.61 181.70 382.95 175.09 C 385.19 156.14 386.63 137.08 388.30 118.06 C 389.13 105.45 390.56 92.85 390.44 80.20 Z" />
<path fill="#232021" opacity="1.00" d=" M 476.51 83.09 C 476.77 83.13 477.29 83.21 477.55 83.26 C 474.36 103.74 465.58 122.76 457.76 141.80 C 456.44 144.99 455.10 148.59 456.44 152.02 C 457.83 155.52 460.90 158.20 461.65 162.00 C 463.26 167.89 459.75 173.36 457.61 178.60 C 456.71 175.43 455.18 172.47 452.89 170.08 C 449.40 166.41 448.47 160.83 449.99 156.08 C 452.36 148.34 455.46 140.85 458.62 133.41 C 465.50 116.99 472.26 100.42 476.51 83.09 Z" />
<path fill="#232021" opacity="1.00" d=" M 418.18 94.29 C 420.42 90.50 422.33 86.15 426.06 83.57 C 413.55 106.32 407.87 132.18 406.13 157.91 C 405.69 162.92 406.55 168.37 403.88 172.91 C 401.86 176.09 398.74 178.32 396.19 181.03 C 396.49 176.50 395.26 172.11 393.47 167.99 C 395.82 164.11 399.71 161.69 403.02 158.75 C 404.33 155.22 404.18 151.26 404.82 147.56 C 407.37 129.45 409.65 110.75 418.18 94.29 Z" />
<path fill="#232021" opacity="1.00" d=" M 161.47 98.43 C 163.80 93.53 166.32 88.51 170.32 84.73 C 169.46 88.06 167.56 90.96 166.22 94.10 C 156.29 116.69 153.42 141.55 152.17 165.96 C 151.64 170.02 150.31 174.36 146.69 176.72 C 142.94 179.30 139.53 182.37 137.18 186.31 C 137.55 180.52 136.31 174.34 139.00 168.94 C 140.40 165.59 143.04 162.99 145.94 160.91 C 148.82 158.85 150.67 155.50 150.85 151.96 C 152.60 133.87 154.11 115.29 161.47 98.43 Z" />
<path fill="#232021" opacity="1.00" d=" M 273.97 84.81 C 277.44 86.64 279.49 90.12 281.48 93.35 C 289.33 106.97 294.47 121.91 298.81 136.95 C 299.62 141.32 304.14 143.04 307.96 143.89 C 313.24 144.98 317.76 148.94 319.45 154.06 C 320.53 157.62 320.96 161.33 321.73 164.97 C 316.94 159.17 308.29 160.13 303.39 154.56 C 299.01 150.11 298.57 143.53 296.39 137.96 C 292.33 123.36 286.80 109.22 280.28 95.55 C 278.47 91.80 275.95 88.46 273.97 84.81 Z" />
<path fill="#232021" opacity="1.00" d=" M 520.89 94.93 C 525.08 91.06 529.71 87.52 535.02 85.33 C 533.17 88.05 530.23 89.68 527.88 91.89 C 511.61 106.33 500.09 125.11 489.97 144.14 C 487.99 147.72 485.24 151.51 480.93 152.26 C 476.74 153.11 472.49 154.14 469.04 156.82 C 471.67 151.72 473.24 145.61 478.23 142.19 C 482.51 138.52 489.59 139.89 492.71 134.60 C 501.03 120.69 508.93 106.14 520.89 94.93 Z" />
<path fill="#232021" opacity="1.00" d=" M 380.58 103.65 C 382.43 106.52 382.31 110.11 382.94 113.36 C 385.47 134.54 381.79 155.75 381.26 176.92 C 380.97 182.04 385.02 185.49 388.10 188.94 C 392.84 194.73 391.79 202.54 391.91 209.48 C 389.85 206.14 387.12 203.32 383.98 200.97 C 379.11 197.23 379.14 190.52 379.18 184.96 C 379.38 159.32 381.49 133.70 380.53 108.06 C 380.46 106.58 380.48 105.11 380.58 103.65 Z" />
<path fill="#232021" opacity="1.00" d=" M 338.21 107.15 C 338.59 107.13 339.35 107.10 339.73 107.08 C 340.29 128.13 345.78 148.92 344.02 170.03 C 343.72 175.35 341.82 181.08 336.99 183.93 C 333.45 185.84 330.61 188.74 328.74 192.29 C 327.71 185.94 325.16 178.90 328.77 172.89 C 331.51 167.57 338.64 166.55 341.03 160.96 C 341.73 158.06 341.41 155.04 341.34 152.10 C 340.43 137.10 337.85 122.20 338.21 107.15 Z" />
<path fill="#232021" opacity="1.00" d=" M 216.15 107.59 C 217.22 108.79 217.89 110.25 218.15 111.84 C 222.71 132.88 223.49 154.53 223.16 175.99 C 223.10 181.32 222.36 186.66 222.95 191.98 C 223.92 196.72 227.27 200.93 226.70 205.96 C 226.55 209.76 224.37 212.98 222.21 215.94 C 220.76 212.45 217.81 210.04 215.66 207.05 C 214.00 199.98 220.79 194.90 220.31 188.02 C 220.91 165.69 220.48 143.29 217.85 121.10 C 217.38 116.58 216.42 112.12 216.15 107.59 Z" />
<path fill="#232021" opacity="1.00" d=" M 418.46 116.13 C 420.25 113.19 421.62 109.64 424.71 107.81 C 413.42 130.16 409.59 155.35 408.24 180.10 C 407.87 184.72 407.04 190.08 402.80 192.78 C 399.37 195.01 396.24 197.69 394.11 201.23 C 394.44 195.62 393.38 189.53 396.37 184.45 C 398.99 178.93 406.85 176.94 406.84 170.01 C 408.72 151.76 409.97 132.76 418.46 116.13 Z" />
<path fill="#232021" opacity="1.00" d=" M 110.61 108.68 C 112.86 110.43 112.85 113.53 113.65 116.03 C 117.99 136.68 118.14 157.87 119.07 178.86 C 118.99 183.29 121.34 187.64 125.24 189.80 C 128.52 191.67 131.88 193.85 133.61 197.35 C 136.40 202.44 135.40 208.42 135.80 213.97 C 133.66 211.16 131.00 208.73 127.64 207.52 C 122.73 205.67 119.08 201.18 118.04 196.07 C 116.55 187.13 116.40 178.05 115.96 169.01 C 115.37 148.83 114.33 128.56 110.61 108.68 Z" />
<path fill="#232021" opacity="1.00" d=" M 509.46 117.55 C 512.31 114.61 515.09 111.17 519.19 110.01 C 504.45 124.38 494.21 142.50 484.49 160.44 C 482.19 165.13 477.40 168.54 472.13 168.72 C 468.58 168.75 465.25 169.95 462.30 171.86 C 464.61 166.65 466.06 160.28 471.46 157.30 C 475.63 154.32 481.51 156.94 485.42 153.47 C 487.29 151.19 488.46 148.44 489.97 145.92 C 495.43 135.81 501.86 126.18 509.46 117.55 Z" />
<path fill="#232021" opacity="1.00" d=" M 458.58 118.02 C 458.89 116.81 459.63 115.79 460.35 114.79 C 460.31 116.59 460.11 118.39 459.66 120.13 C 456.58 132.08 452.18 143.64 448.73 155.48 C 447.89 158.57 446.93 161.73 447.14 164.97 C 448.18 170.15 453.91 172.70 454.95 177.90 C 456.70 184.00 453.23 189.76 451.20 195.31 C 450.25 192.08 448.81 189.02 446.33 186.69 C 442.36 182.96 441.88 177.13 442.66 172.04 C 445.23 153.31 453.56 136.11 458.58 118.02 Z" />
<path fill="#232021" opacity="1.00" d=" M 159.38 129.05 C 160.84 124.64 162.09 119.72 165.82 116.63 C 164.27 121.41 162.15 125.99 161.11 130.93 C 158.80 141.55 156.66 152.25 155.78 163.10 C 155.29 170.22 154.67 177.34 154.18 184.47 C 153.70 190.01 150.12 195.03 145.11 197.42 C 141.77 199.00 139.20 201.66 137.40 204.86 C 137.35 198.32 135.73 190.84 140.27 185.34 C 143.35 180.56 151.38 180.47 152.40 174.19 C 153.54 158.99 154.92 143.70 159.38 129.05 Z" />
<path fill="#232021" opacity="1.00" d=" M 282.95 117.04 C 286.79 120.90 288.64 126.19 290.84 131.05 C 293.83 139.33 296.96 147.57 300.73 155.53 C 302.74 159.61 307.56 160.80 311.62 161.70 C 317.39 162.89 322.04 167.74 323.39 173.42 C 324.18 176.86 324.51 180.40 325.36 183.84 C 325.18 183.71 324.81 183.44 324.63 183.31 C 322.31 180.82 319.50 178.76 316.19 177.84 C 310.77 176.25 306.02 172.56 303.32 167.59 C 294.82 152.68 291.93 135.37 283.86 120.27 C 283.40 119.24 283.10 118.16 282.95 117.04 Z" />
<path fill="#232021" opacity="1.00" d=" M 532.85 116.83 C 535.71 118.84 537.34 122.00 539.17 124.87 C 549.24 141.38 554.92 160.08 559.26 178.80 C 560.08 183.99 565.72 186.73 566.25 192.02 C 566.82 195.14 565.56 198.14 564.31 200.92 C 562.25 198.47 559.29 197.12 556.93 195.06 C 555.15 191.14 556.83 186.94 557.50 182.99 C 557.42 179.88 556.46 176.88 555.73 173.88 C 550.90 155.35 544.29 137.15 534.55 120.61 C 533.86 119.41 533.31 118.13 532.85 116.83 Z" />
<path fill="#232021" opacity="1.00" d=" M 557.31 127.51 C 558.88 131.19 558.87 135.28 559.78 139.13 C 564.49 162.02 569.01 184.97 573.14 207.96 C 573.41 213.55 568.35 216.90 565.69 221.20 C 564.44 216.21 562.06 211.05 563.84 205.87 C 564.50 202.21 567.55 199.59 568.37 196.05 C 566.48 172.93 555.87 150.97 557.31 127.51 Z" />
<path fill="#232021" opacity="1.00" d=" M 199.42 128.87 C 202.82 132.09 204.24 136.74 205.94 140.97 C 213.36 162.12 211.25 184.91 211.89 206.87 C 214.93 210.38 218.89 213.27 220.46 217.84 C 217.93 221.43 216.16 225.55 215.86 229.98 C 212.20 225.66 207.59 221.16 207.95 214.99 C 211.37 186.18 209.91 156.17 199.42 128.87 Z" />
<path fill="#232021" opacity="1.00" d=" M 235.31 131.05 C 235.61 131.10 236.21 131.20 236.50 131.25 C 234.35 145.42 233.88 159.77 232.79 174.05 C 232.03 188.01 231.16 201.98 230.55 215.95 C 230.22 220.66 231.28 225.70 229.11 230.10 C 226.81 234.56 221.88 236.54 218.69 240.21 C 218.67 235.60 217.72 230.95 218.59 226.38 C 219.69 222.61 221.48 218.91 224.39 216.20 C 226.17 214.50 228.15 212.65 228.22 209.99 C 231.38 183.75 227.59 156.69 235.31 131.05 Z" />
<path fill="#232021" opacity="1.00" d=" M 371.64 131.69 C 372.44 133.02 373.10 134.44 373.49 135.95 C 378.28 155.93 377.34 176.61 378.45 196.95 C 379.12 202.45 384.71 204.47 388.27 207.77 C 393.13 212.62 392.29 219.96 392.35 226.22 C 390.30 223.73 387.96 221.43 384.95 220.13 C 380.61 218.13 377.46 213.85 376.95 209.09 C 375.02 193.48 376.13 177.72 374.78 162.08 C 374.52 151.87 372.98 141.78 371.64 131.69 Z" />
<path fill="#232021" opacity="1.00" d=" M 415.13 147.95 C 416.41 144.02 417.72 139.81 420.97 137.02 C 412.96 157.27 411.63 179.24 409.49 200.68 C 409.96 201.46 410.45 202.24 410.95 203.01 C 412.49 195.34 413.40 187.56 414.83 179.87 C 415.84 176.00 416.31 171.69 419.05 168.57 C 418.79 172.16 417.41 175.54 416.79 179.07 C 414.25 191.94 413.98 205.26 410.15 217.87 C 408.80 222.64 405.72 226.97 401.21 229.18 C 398.21 230.60 396.17 233.23 394.43 235.96 C 394.41 229.92 392.80 223.08 396.70 217.83 C 399.27 213.59 404.93 213.53 408.14 210.05 C 409.81 208.58 410.08 206.24 410.74 204.25 C 410.19 203.57 409.64 202.90 409.10 202.22 C 408.25 206.93 404.43 210.33 400.26 212.23 C 397.59 213.43 395.66 215.68 393.91 217.95 C 393.82 212.16 392.76 205.57 396.65 200.68 C 399.61 196.12 407.58 196.31 408.17 190.01 C 409.31 175.83 410.92 161.59 415.13 147.95 Z" />
<path fill="#232021" opacity="1.00" d=" M 501.30 139.33 C 502.20 138.20 503.46 137.49 504.78 136.94 C 503.15 139.57 500.97 141.80 499.18 144.32 C 492.03 154.34 486.71 165.58 479.20 175.35 C 475.99 179.67 471.64 183.70 466.08 184.35 C 462.34 184.62 458.88 186.05 455.84 188.19 C 457.95 182.65 459.40 176.04 464.93 172.82 C 469.53 169.32 476.11 172.35 480.57 168.63 C 488.42 159.55 493.22 148.24 501.30 139.33 Z" />
<path fill="#232021" opacity="1.00" d=" M 524.12 139.20 C 529.65 141.98 533.68 146.94 537.15 151.93 C 543.70 161.94 547.50 173.43 550.74 184.86 C 551.88 188.53 552.24 192.48 553.85 195.99 C 557.06 198.09 560.89 199.46 563.15 202.76 C 561.69 206.21 560.97 209.95 561.58 213.69 C 559.33 211.81 556.79 210.28 554.71 208.21 C 552.85 206.37 552.40 203.70 551.75 201.29 C 551.42 201.37 550.77 201.53 550.44 201.61 C 551.30 204.50 551.36 208.08 553.92 210.14 C 556.45 212.23 559.76 213.49 561.56 216.41 C 564.45 220.35 564.00 225.49 564.49 230.11 C 562.31 227.33 559.46 225.26 556.36 223.63 C 551.91 221.33 550.70 215.72 550.85 211.12 C 550.54 211.09 549.91 211.02 549.59 210.99 C 550.48 214.96 550.65 219.11 551.92 222.99 C 554.09 226.93 559.61 226.40 562.24 229.90 C 565.84 233.65 565.13 239.24 565.25 244.00 C 563.33 241.64 560.89 239.80 558.03 238.74 C 553.82 237.12 550.99 233.02 550.58 228.58 C 547.96 212.16 545.10 195.20 536.35 180.75 C 540.08 182.72 541.52 186.94 543.28 190.49 C 545.93 197.00 548.36 203.71 549.23 210.72 C 549.58 210.03 549.85 209.31 550.04 208.56 C 547.31 191.87 542.12 175.07 531.70 161.49 C 530.87 160.39 530.16 159.20 529.60 157.95 C 540.06 165.78 544.67 178.76 548.02 190.90 C 548.93 194.23 549.76 197.59 550.17 201.03 C 550.77 199.86 551.22 198.60 551.31 197.27 C 548.47 179.12 541.98 161.21 530.52 146.68 C 528.45 144.12 525.95 141.94 524.12 139.20 Z" />
<path fill="#232021" opacity="1.00" d=" M 54.16 152.18 C 55.89 149.34 57.43 146.25 60.07 144.12 C 59.07 147.47 57.03 150.35 55.50 153.46 C 46.94 170.33 41.45 188.61 37.72 207.12 C 35.99 212.75 41.07 218.41 38.07 223.88 C 35.68 225.40 33.12 226.70 31.13 228.78 C 29.76 225.74 28.36 222.43 29.05 219.02 C 29.61 214.26 34.75 211.76 35.41 207.02 C 39.23 188.05 44.38 169.03 54.16 152.18 Z" />
<path fill="#232021" opacity="1.00" d=" M 246.85 144.17 C 257.02 143.91 265.72 150.49 272.58 157.34 C 285.85 170.91 294.38 188.17 302.55 205.09 C 317.22 236.92 328.26 270.53 334.19 305.11 C 335.51 312.76 336.95 320.39 338.02 328.09 C 339.38 338.66 337.75 349.38 339.45 359.92 C 340.67 369.10 340.14 378.54 342.79 387.49 C 344.19 392.65 346.43 397.52 348.74 402.32 C 342.98 402.53 337.14 403.15 331.44 401.89 C 333.75 387.72 335.47 373.33 334.83 358.96 C 334.87 353.07 331.90 347.78 331.19 342.02 C 329.15 328.35 327.89 314.58 325.62 300.94 C 322.87 283.55 318.01 266.58 312.62 249.85 C 307.07 233.01 301.09 216.28 293.85 200.08 C 287.66 187.72 280.65 175.70 272.20 164.73 C 265.33 156.27 257.61 147.51 246.85 144.17 Z" />
<path fill="#232021" opacity="1.00" d=" M 568.52 156.97 C 568.53 153.30 568.41 149.57 569.39 146.00 C 571.37 162.59 573.00 179.24 575.12 195.82 C 576.06 203.18 576.69 210.58 577.20 217.98 C 577.27 221.78 576.91 226.16 573.88 228.86 C 571.22 231.16 568.71 233.64 566.72 236.55 C 566.59 231.93 565.55 227.00 567.47 222.60 C 569.20 217.68 575.21 214.87 574.70 209.07 C 573.14 191.65 568.66 174.53 568.52 156.97 Z" />
<path fill="#232021" opacity="1.00" d=" M 108.60 148.81 C 109.47 149.69 110.19 150.75 110.40 152.00 C 113.56 167.32 114.09 183.04 116.90 198.41 C 117.44 200.66 117.70 203.13 119.10 205.05 C 122.85 209.66 129.97 209.61 133.27 214.76 C 137.35 220.08 136.48 227.07 137.04 233.33 C 134.69 230.40 131.70 228.04 128.10 226.87 C 122.47 224.95 119.37 219.36 117.82 213.96 C 111.80 194.52 112.16 173.95 109.03 154.00 C 108.75 152.28 108.64 150.54 108.60 148.81 Z" />
<path fill="#232021" opacity="1.00" d=" M 161.62 153.40 C 161.89 152.13 162.85 151.28 163.80 150.50 C 158.87 167.49 159.61 185.47 155.33 202.59 C 154.07 208.26 150.70 213.53 145.54 216.38 C 142.32 218.08 140.24 221.09 138.44 224.15 C 137.93 217.60 136.45 210.30 140.42 204.48 C 143.48 198.89 151.37 198.87 154.17 193.08 C 157.90 180.11 157.42 166.27 161.62 153.40 Z" />
<path fill="#232021" opacity="1.00" d=" M 197.32 152.87 C 200.49 156.41 201.84 161.12 203.35 165.53 C 208.40 182.87 206.91 201.12 206.45 218.92 C 206.40 225.12 213.21 227.64 215.00 233.07 C 217.56 238.56 215.68 244.60 215.17 250.30 C 213.18 246.31 210.11 243.08 206.80 240.15 C 203.15 236.87 203.35 231.52 203.64 227.03 C 205.37 203.33 205.72 178.86 198.06 156.06 C 197.75 155.01 197.51 153.94 197.32 152.87 Z" />
<path fill="#232021" opacity="1.00" d=" M 35.75 158.85 C 35.96 157.43 36.46 156.07 37.05 154.76 C 38.00 177.33 29.07 198.74 27.06 221.01 C 26.00 226.01 30.92 229.33 31.72 233.97 C 33.72 239.22 31.46 244.55 30.32 249.69 C 27.40 244.70 21.51 240.55 22.50 234.06 C 25.43 217.41 27.84 200.66 31.04 184.05 C 32.55 175.64 34.41 167.29 35.75 158.85 Z" />
<path fill="#232021" opacity="1.00" d=" M 238.63 167.41 C 239.77 163.39 240.66 159.20 242.89 155.61 C 242.83 157.77 242.51 159.92 242.09 162.05 C 237.64 186.83 236.10 212.01 232.70 236.94 C 231.98 242.33 230.90 248.81 225.64 251.68 C 222.02 253.56 218.63 255.91 216.12 259.17 C 217.20 253.27 216.97 246.74 220.80 241.74 C 223.26 237.81 228.20 236.29 230.43 232.17 C 231.58 230.32 231.78 228.09 232.06 225.98 C 234.13 206.45 233.86 186.57 238.63 167.41 Z" />
<path fill="#232021" opacity="1.00" d=" M 59.09 175.15 C 61.63 171.99 64.11 168.48 67.90 166.75 C 60.60 175.74 54.54 185.81 50.76 196.80 C 47.59 206.30 45.07 216.07 43.91 226.03 C 43.98 227.64 43.06 229.84 44.20 231.15 L 44.66 231.10 C 47.26 218.03 49.50 204.31 57.16 193.07 C 58.97 190.44 61.07 187.97 63.73 186.16 C 60.60 191.76 56.76 196.99 54.47 203.05 C 49.92 213.21 47.85 224.22 45.99 235.12 C 45.18 239.67 45.25 244.40 43.78 248.82 C 41.85 253.97 35.08 253.98 32.28 258.51 C 32.13 258.56 31.82 258.65 31.66 258.69 C 32.44 254.22 31.52 249.23 34.25 245.30 C 36.23 241.46 41.40 241.15 43.42 237.39 C 44.01 236.08 44.54 234.52 43.86 233.15 C 42.46 232.96 42.67 235.09 41.89 235.82 C 40.27 238.80 36.91 240.15 34.36 242.18 C 34.69 238.26 33.81 234.40 32.28 230.81 C 34.64 227.79 38.32 226.59 41.44 224.63 C 45.53 207.67 48.70 189.65 59.09 175.15 Z" />
<path fill="#232021" opacity="1.00" d=" M 369.34 167.54 C 370.32 168.47 370.95 169.65 371.10 171.01 C 373.43 183.94 373.87 197.12 375.72 210.11 C 376.15 212.59 376.48 215.16 377.63 217.43 C 380.47 221.83 386.66 222.07 389.58 226.43 C 393.67 231.43 392.63 238.20 393.05 244.18 C 390.95 241.47 388.41 239.09 385.19 237.78 C 380.39 235.73 377.87 230.77 376.60 225.97 C 372.45 210.99 372.11 195.35 370.64 179.97 C 370.29 175.82 369.44 171.72 369.34 167.54 Z" />
<path fill="#232021" opacity="1.00" d=" M 579.40 168.72 C 580.15 173.78 579.29 178.88 579.34 183.96 C 578.94 200.69 580.76 217.38 580.11 234.10 C 580.07 238.42 578.04 242.95 574.06 244.98 C 571.28 246.40 568.82 248.34 566.91 250.81 C 566.87 246.18 565.89 241.04 568.58 236.92 C 570.92 232.83 576.65 231.67 577.86 226.78 C 578.82 222.25 577.85 217.57 577.86 212.99 C 577.62 198.25 576.47 183.27 579.40 168.72 Z" />
<path fill="#232021" opacity="1.00" d=" M 24.70 172.75 C 26.20 176.66 25.75 180.95 25.87 185.05 C 26.04 202.19 21.94 218.98 20.84 236.02 C 20.38 242.07 26.27 245.39 28.37 250.45 C 30.70 255.17 29.56 260.56 29.81 265.62 C 27.76 262.24 25.08 259.36 22.18 256.72 C 17.94 252.68 18.57 246.35 18.70 241.02 C 19.35 225.34 21.50 209.76 22.75 194.11 C 23.69 187.02 23.68 179.83 24.70 172.75 Z" />
<path fill="#232021" opacity="1.00" d=" M 182.41 185.41 C 185.07 180.54 188.26 175.71 192.98 172.61 C 186.95 180.57 183.55 190.08 180.71 199.56 C 174.93 219.57 171.82 240.23 169.46 260.88 C 166.87 283.50 164.81 306.24 165.02 329.03 C 165.38 347.10 167.55 365.07 169.15 383.06 C 169.24 389.79 172.83 395.73 174.42 402.16 C 172.17 402.23 169.91 402.28 167.66 402.29 C 166.81 398.97 166.07 395.59 164.69 392.44 C 158.70 378.16 153.26 363.66 147.70 349.21 C 139.23 330.76 130.76 312.27 124.16 293.05 C 119.02 278.12 115.17 262.76 112.50 247.20 C 112.26 245.64 112.14 244.07 112.17 242.50 C 114.16 245.35 114.57 248.87 115.36 252.16 C 120.27 273.47 129.80 293.28 139.16 312.91 C 147.01 329.26 152.99 346.44 158.13 363.82 C 159.03 366.76 160.16 369.63 161.72 372.30 C 161.51 364.86 160.57 357.47 160.26 350.04 C 156.77 306.06 162.09 261.85 171.27 218.86 C 173.84 207.38 176.95 195.89 182.41 185.41 Z" />
<path fill="#232021" opacity="1.00" d=" M 303.56 173.49 C 306.56 175.87 309.53 178.52 313.41 179.33 C 318.47 180.57 323.17 183.85 325.32 188.70 C 327.38 193.20 327.34 198.29 328.05 203.10 C 325.61 200.13 322.63 197.53 318.89 196.37 C 313.55 194.60 308.87 190.48 307.14 185.04 C 305.99 181.18 304.81 177.32 303.56 173.49 Z" />
<path fill="#232021" opacity="1.00" d=" M 498.05 190.07 C 506.03 184.03 515.37 179.29 525.49 178.54 C 525.50 178.67 525.52 178.93 525.53 179.06 C 518.00 180.99 511.53 185.56 505.55 190.36 C 492.58 201.20 481.82 214.43 472.09 228.18 C 461.15 244.72 451.76 262.24 443.19 280.11 C 434.64 297.69 429.56 316.64 423.30 335.09 C 421.79 339.87 418.28 343.84 417.43 348.85 C 415.14 360.49 415.37 372.48 416.12 384.27 C 418.37 372.69 419.89 360.93 423.37 349.62 C 426.78 338.68 430.00 327.54 435.70 317.53 C 439.22 311.40 443.88 305.69 450.13 302.20 C 454.95 299.54 460.59 298.60 466.06 298.94 C 459.46 300.30 453.27 303.64 448.98 308.90 C 439.03 320.72 435.18 336.06 430.63 350.48 C 426.65 362.08 423.68 373.99 420.86 385.92 C 419.70 391.35 418.12 396.73 417.77 402.30 C 415.64 402.30 413.52 402.19 411.41 401.99 C 413.86 387.11 413.18 371.99 413.24 356.98 C 413.97 343.12 414.87 328.89 420.08 315.86 C 425.00 302.16 429.78 288.36 436.16 275.25 C 444.10 259.30 453.03 243.83 463.00 229.06 C 472.98 214.70 484.14 200.83 498.05 190.07 Z" />
<path fill="#232021" opacity="1.00" d=" M 341.00 185.02 C 343.62 183.52 344.60 180.53 346.08 178.10 C 345.98 184.56 347.89 191.41 345.33 197.60 C 342.64 204.01 334.75 205.16 331.20 210.92 C 330.80 204.95 328.84 198.48 331.79 192.87 C 333.64 189.05 337.56 187.12 341.00 185.02 Z" />
<path fill="#232021" opacity="1.00" d=" M 439.23 179.35 C 440.15 181.78 440.40 184.64 442.40 186.52 C 445.02 189.17 448.07 191.93 448.64 195.82 C 449.69 201.29 447.30 206.51 445.56 211.55 C 443.70 206.19 437.73 203.55 436.49 197.92 C 435.01 191.56 438.09 185.48 439.23 179.35 Z" />
<path fill="#232021" opacity="1.00" d=" M 354.45 181.03 C 362.36 199.19 362.93 219.56 361.45 239.03 C 358.75 271.71 350.24 303.54 346.12 336.03 C 344.14 349.94 344.01 364.00 344.62 378.02 C 343.76 372.68 342.82 367.36 341.82 362.05 C 339.70 348.21 340.19 334.09 341.66 320.21 C 341.08 319.51 340.50 318.81 339.92 318.13 L 339.54 319.95 C 338.65 308.52 334.10 297.62 334.29 286.09 C 333.55 271.69 332.84 257.27 331.50 242.91 C 330.68 237.51 329.61 231.99 327.04 227.12 C 324.68 222.55 319.92 220.10 316.74 216.23 C 314.09 213.22 312.89 209.31 311.60 205.59 C 313.92 207.55 316.10 209.72 318.75 211.26 C 321.96 213.17 325.65 214.12 328.74 216.24 C 330.91 217.65 332.24 219.94 333.86 221.90 C 333.10 219.86 332.24 217.85 331.32 215.89 C 333.49 212.58 336.49 209.96 339.98 208.13 C 343.33 206.37 345.43 203.17 347.32 200.03 C 347.54 205.12 347.78 210.55 345.25 215.17 C 343.08 219.75 338.38 222.86 337.40 228.02 C 335.99 234.95 336.75 242.08 337.34 249.05 C 338.44 264.02 339.72 278.97 340.41 293.96 C 340.58 300.65 341.38 307.36 340.56 314.04 C 340.30 315.82 341.04 317.56 341.94 319.07 C 344.53 288.79 352.08 259.20 355.58 229.04 C 357.51 213.12 358.55 196.72 354.45 181.03 Z" />
<path fill="#232021" opacity="1.00" d=" M 196.59 182.90 C 199.01 184.96 199.82 188.11 200.47 191.08 C 203.64 206.17 202.90 221.67 202.22 236.96 C 201.81 239.85 203.85 242.32 206.18 243.73 C 209.18 245.61 212.23 247.88 213.44 251.37 C 215.52 256.46 213.58 261.88 212.92 267.05 C 211.41 264.36 209.54 261.79 206.85 260.17 C 202.59 257.61 199.26 253.08 199.28 247.96 C 199.43 236.98 200.71 226.03 200.37 215.05 C 199.87 204.27 199.72 193.32 196.59 182.90 Z" />
<path fill="#232021" opacity="1.00" d=" M 466.99 186.39 C 470.26 186.32 473.00 184.47 475.83 183.07 C 472.13 189.06 470.09 197.19 462.73 199.79 C 458.16 201.03 453.27 201.70 449.70 205.18 C 451.55 200.18 452.52 194.44 456.61 190.64 C 459.33 187.87 463.17 186.58 466.99 186.39 Z" />
<path fill="#232021" opacity="1.00" d=" M 245.67 188.46 C 246.25 187.11 247.04 185.87 247.92 184.70 C 247.71 185.84 247.45 186.98 247.14 188.10 C 241.48 205.68 238.46 223.95 235.51 242.14 C 234.42 248.48 233.19 254.80 231.53 261.01 C 230.19 265.95 225.95 269.68 221.05 270.88 C 217.93 271.62 215.39 273.60 213.24 275.88 C 214.29 269.20 214.53 260.96 221.17 257.15 C 225.60 255.00 231.20 252.95 232.08 247.35 C 235.81 227.57 238.04 207.25 245.67 188.46 Z" />
<path fill="#232021" opacity="1.00" d=" M 254.31 186.10 C 255.49 187.03 256.57 188.11 257.37 189.40 C 268.97 207.63 276.58 228.01 283.36 248.42 C 284.71 253.27 289.90 255.65 291.40 260.41 C 292.21 262.77 291.87 265.32 291.59 267.74 C 292.03 268.49 292.48 269.23 292.94 269.96 C 293.52 268.34 293.94 266.69 294.18 265.00 C 289.29 242.53 277.32 221.67 276.48 198.34 C 278.37 201.13 278.43 204.67 279.43 207.82 C 284.81 227.35 290.91 246.67 297.00 265.99 C 298.13 270.03 300.32 273.81 300.61 278.05 C 300.76 282.76 297.02 286.16 295.29 290.24 C 292.29 284.31 289.22 277.36 292.41 270.82 C 289.66 268.69 286.59 267.04 283.56 265.36 C 281.19 262.53 281.46 258.41 281.98 254.96 C 282.55 252.07 281.36 249.27 280.53 246.57 C 273.74 227.18 266.14 207.97 256.10 190.00 C 255.42 188.74 254.81 187.44 254.31 186.10 Z" />
<path fill="#232021" opacity="1.00" d=" M 309.70 194.17 C 314.58 198.51 322.10 198.48 326.15 203.90 C 328.78 206.84 329.19 210.89 329.85 214.60 C 325.32 210.37 318.31 210.46 314.17 205.72 C 311.04 202.67 310.86 198.12 309.70 194.17 Z" />
<path fill="#232021" opacity="1.00" d=" M 424.99 199.91 C 425.60 197.74 425.88 195.31 427.48 193.58 C 427.44 198.82 425.64 203.82 424.98 208.99 C 420.26 236.72 424.53 264.95 421.29 292.80 C 421.85 293.50 422.41 294.20 422.98 294.91 C 424.45 281.72 427.84 268.83 430.93 255.95 C 433.08 246.64 436.48 237.55 437.33 227.97 C 437.99 223.02 434.81 218.89 433.40 214.40 C 431.79 209.66 432.54 204.52 433.97 199.85 C 435.01 203.15 436.26 206.57 438.97 208.90 C 441.30 210.93 443.30 213.30 444.69 216.09 C 443.66 217.69 442.66 219.30 441.74 220.96 C 444.16 218.81 446.70 216.53 450.04 216.00 C 454.70 215.15 459.10 213.32 463.02 210.65 C 461.45 213.40 459.98 216.31 457.67 218.52 C 454.43 221.79 449.74 223.16 446.72 226.67 C 442.44 231.48 440.44 237.77 438.84 243.87 C 435.53 256.34 432.37 268.86 429.64 281.47 C 428.37 289.01 424.22 295.60 422.29 302.96 C 422.31 300.69 422.41 298.42 422.66 296.17 C 422.11 295.47 421.56 294.78 421.01 294.09 C 420.56 300.13 420.33 306.34 418.06 312.03 C 416.38 316.57 415.42 321.33 414.30 326.03 C 417.05 299.41 415.02 272.59 417.33 245.94 C 418.44 230.40 421.20 215.01 424.99 199.91 Z" />
<path fill="#232021" opacity="1.00" d=" M 14.42 194.69 C 17.06 202.46 17.04 210.87 17.49 218.99 C 18.12 230.29 16.96 241.60 17.68 252.88 C 18.51 259.35 26.03 261.04 28.46 266.58 C 30.60 270.72 29.69 275.54 29.91 280.01 C 28.10 277.51 25.92 275.29 23.21 273.78 C 19.32 271.54 16.45 267.56 15.97 263.05 C 14.66 247.38 16.03 231.65 15.45 215.96 C 15.46 208.85 14.37 201.79 14.42 194.69 Z" />
<path fill="#232021" opacity="1.00" d=" M 83.71 202.02 C 84.08 200.06 84.33 197.96 85.67 196.37 C 83.12 218.83 83.18 241.56 85.95 264.00 C 86.58 269.07 91.76 272.61 90.95 278.08 C 89.28 280.66 87.20 282.97 85.92 285.81 C 84.04 283.48 81.99 281.05 81.55 277.99 C 80.46 272.81 84.60 268.27 83.66 263.09 C 81.46 242.84 80.28 222.21 83.71 202.02 Z" />
<path fill="#232021" opacity="1.00" d=" M 583.34 200.10 C 583.64 200.14 584.22 200.21 584.52 200.24 C 582.86 218.14 585.19 236.66 579.58 254.01 C 577.66 260.22 569.99 260.65 566.83 265.88 C 566.80 260.72 566.06 254.80 569.62 250.54 C 572.55 246.58 579.31 246.35 580.35 240.88 C 582.66 227.42 581.48 213.63 583.34 200.10 Z" />
<path fill="#232021" opacity="1.00" d=" M 526.73 203.67 C 527.46 202.39 528.54 201.38 529.80 200.61 C 519.31 219.38 510.61 239.14 503.70 259.51 C 502.13 264.18 504.90 269.47 502.07 273.87 C 499.58 275.54 496.79 276.73 494.45 278.63 C 494.00 276.10 493.21 273.50 493.88 270.94 C 494.43 267.68 496.92 265.33 499.09 263.04 C 500.92 261.28 501.78 258.82 502.64 256.50 C 508.94 238.18 516.16 219.99 526.73 203.67 Z" />
<path fill="#232021" opacity="1.00" d=" M 451.86 205.80 C 456.02 202.37 461.77 203.19 466.56 201.26 C 465.01 204.43 464.19 208.32 461.03 210.37 C 456.65 213.50 450.86 212.71 446.15 215.15 C 447.46 211.74 448.74 208.00 451.86 205.80 Z" />
<path fill="#232021" opacity="1.00" d=" M 540.98 205.19 C 543.31 207.10 544.06 210.13 545.03 212.84 C 547.39 220.43 548.36 228.42 551.09 235.90 C 553.39 240.68 560.03 239.85 562.91 244.06 C 566.10 247.99 565.55 253.38 565.29 258.10 C 562.97 255.84 560.44 253.82 557.51 252.40 C 552.01 249.31 550.45 242.71 548.98 237.07 C 546.54 226.38 544.86 215.49 540.98 205.19 Z" />
<path fill="#232021" opacity="1.00" d=" M 247.58 207.82 C 253.93 211.95 258.46 218.26 262.39 224.61 C 269.66 236.90 274.31 250.49 279.11 263.87 C 279.55 264.86 279.85 266.11 281.02 266.48 C 284.21 267.98 287.58 269.34 290.04 271.97 C 289.23 275.65 289.09 279.45 289.92 283.15 C 287.30 281.41 284.32 280.16 282.03 277.97 C 278.97 274.74 278.59 270.12 277.45 266.03 C 272.30 248.04 264.70 230.57 253.44 215.54 C 251.49 212.96 249.03 210.75 247.58 207.82 Z" />
<path fill="#232021" opacity="1.00" d=" M 51.71 219.50 C 53.14 215.92 54.66 212.05 58.04 209.85 C 50.16 224.69 47.94 241.60 45.96 258.05 C 45.75 262.06 43.86 266.40 39.87 267.91 C 36.72 268.99 33.66 270.36 31.42 272.92 C 31.60 268.23 30.47 262.66 34.08 258.94 C 36.66 255.68 41.86 256.63 44.19 253.13 C 44.86 251.31 44.95 249.35 45.28 247.46 C 46.35 237.94 48.30 228.47 51.71 219.50 Z" />
<path fill="#232021" opacity="1.00" d=" M 149.57 216.63 C 152.45 215.12 154.00 212.16 156.00 209.75 C 155.14 217.44 156.82 226.60 150.61 232.54 C 146.66 235.78 142.19 238.66 140.24 243.67 C 139.39 237.26 137.85 230.16 141.25 224.21 C 142.97 220.71 146.26 218.46 149.57 216.63 Z" />
<path fill="#232021" opacity="1.00" d=" M 507.93 213.11 C 508.11 212.70 508.47 211.88 508.65 211.47 C 508.91 216.02 507.93 220.50 506.97 224.92 C 503.33 241.03 496.14 256.04 491.99 271.99 C 490.53 275.88 494.23 279.14 494.26 282.97 C 495.29 288.19 492.44 292.83 490.42 297.39 C 488.34 293.22 484.35 289.18 485.68 284.13 C 493.61 260.64 501.49 237.07 507.93 213.11 Z" />
<path fill="#232021" opacity="1.00" d=" M 93.84 229.95 C 95.09 224.23 96.49 218.21 100.16 213.51 C 99.46 217.42 97.88 221.11 97.07 225.00 C 92.79 244.39 93.84 264.66 98.03 283.97 C 99.01 289.08 95.33 293.17 92.50 296.92 C 91.92 293.14 89.86 289.91 87.53 286.98 C 88.89 283.11 92.41 280.60 94.26 277.13 C 92.81 261.48 91.06 245.56 93.84 229.95 Z" />
<path fill="#232021" opacity="1.00" d=" M 194.08 214.38 C 195.83 216.49 196.07 219.29 196.39 221.90 C 197.76 232.67 196.49 243.58 198.00 254.33 C 199.63 260.61 207.81 261.11 210.20 266.88 C 213.21 272.58 210.82 279.01 209.76 284.89 C 208.24 278.37 200.77 276.57 198.18 270.78 C 195.65 265.59 195.46 259.66 195.20 254.00 C 195.00 240.78 195.57 227.53 194.08 214.38 Z" />
<path fill="#232021" opacity="1.00" d=" M 69.46 215.49 C 70.19 216.50 70.80 217.60 71.17 218.80 C 76.38 235.65 76.51 253.44 78.72 270.81 C 78.15 271.52 77.58 272.23 77.02 272.95 C 74.71 253.77 72.19 234.60 69.46 215.49 Z" />
<path fill="#232021" opacity="1.00" d=" M 289.45 216.50 C 290.87 219.51 290.95 222.90 291.61 226.11 C 295.13 243.18 299.65 260.02 303.89 276.92 C 304.92 282.78 307.55 288.85 305.72 294.80 C 303.67 298.53 300.45 301.51 298.72 305.47 C 297.84 300.91 295.95 296.24 297.23 291.57 C 298.14 286.45 303.76 282.70 302.09 277.06 C 298.22 261.00 292.16 245.45 289.95 229.01 C 289.41 224.87 288.95 220.67 289.45 216.50 Z" />
<path fill="#232021" opacity="1.00" d=" M 240.18 232.99 C 241.49 228.77 242.13 224.16 244.80 220.53 C 244.81 222.08 244.65 223.64 244.19 225.13 C 239.56 240.57 237.43 256.70 231.87 271.87 C 229.96 276.40 228.41 281.34 224.85 284.90 C 222.48 287.31 219.10 288.02 216.03 289.11 C 213.67 289.90 211.94 291.76 210.08 293.31 C 211.20 287.39 211.39 280.55 216.10 276.15 C 220.23 271.76 228.50 273.18 230.90 266.89 C 235.09 255.92 236.88 244.23 240.18 232.99 Z" />
<path fill="#232021" opacity="1.00" d=" M 522.52 235.46 C 526.16 229.90 530.40 224.39 536.15 220.88 C 534.31 223.75 531.80 226.09 529.78 228.82 C 519.20 242.87 511.97 259.19 507.08 276.01 C 506.13 279.48 505.61 283.34 502.99 286.02 C 500.74 288.11 497.86 289.32 495.33 291.00 C 496.28 287.53 496.24 283.92 495.41 280.43 C 497.97 277.31 502.47 276.87 505.21 274.22 C 510.36 261.06 514.93 247.49 522.52 235.46 Z" />
<path fill="#232021" opacity="1.00" d=" M 117.71 222.81 C 119.85 224.67 121.23 227.51 124.02 228.52 C 127.51 229.91 131.44 230.92 133.92 233.98 C 138.50 238.95 138.10 246.13 139.04 252.37 C 134.75 247.56 127.27 247.83 123.43 242.54 C 119.07 236.92 119.41 229.41 117.71 222.81 Z" />
<path fill="#232021" opacity="1.00" d=" M 404.00 230.15 C 406.97 228.90 408.79 226.14 410.91 223.85 C 409.81 230.96 411.26 239.79 404.87 244.83 C 401.10 247.24 397.32 249.83 395.49 254.11 C 395.30 248.54 393.78 242.58 396.36 237.32 C 397.78 233.96 400.75 231.61 404.00 230.15 Z" />
<path fill="#232021" opacity="1.00" d=" M 10.33 225.45 C 11.08 226.44 11.69 227.57 11.78 228.84 C 13.41 240.29 13.41 251.91 14.79 263.39 C 15.20 265.76 15.39 268.25 16.53 270.42 C 19.07 274.67 24.63 275.56 27.35 279.64 C 30.78 284.05 30.26 289.93 30.42 295.18 C 27.14 289.81 19.77 288.75 17.27 282.79 C 13.83 274.68 12.92 265.77 12.29 257.07 C 11.61 246.53 10.89 235.99 10.33 225.45 Z" />
<path fill="#232021" opacity="1.00" d=" M 252.76 227.62 C 256.67 229.81 259.42 233.50 262.07 237.02 C 269.52 247.56 273.66 259.95 277.64 272.11 C 278.70 275.16 279.38 278.80 282.30 280.70 C 285.15 282.50 288.63 283.50 290.74 286.31 C 294.01 290.00 294.21 295.14 295.69 299.62 C 295.34 300.06 295.00 300.49 294.66 300.94 C 297.47 304.41 297.69 309.01 298.59 313.20 C 295.90 310.75 292.45 309.69 289.03 308.76 C 284.76 307.39 282.16 303.28 281.11 299.13 C 276.02 282.71 270.88 265.92 261.10 251.58 C 263.16 252.45 264.69 254.12 265.88 255.97 C 273.21 267.19 277.32 280.06 281.33 292.73 C 283.06 297.93 289.75 296.24 293.17 299.53 C 293.57 299.02 293.97 298.51 294.37 298.01 C 291.52 296.27 288.45 294.98 285.44 293.59 C 281.78 291.88 280.48 287.66 279.42 284.09 C 274.49 266.66 268.20 249.30 257.65 234.41 C 256.03 232.13 254.17 230.03 252.76 227.62 Z" />
<path fill="#232021" opacity="1.00" d=" M 493.99 239.04 C 494.90 235.54 494.87 231.74 496.51 228.45 C 497.07 248.41 488.23 266.91 483.89 286.03 C 483.42 285.24 482.97 284.45 482.53 283.66 C 486.71 268.88 490.58 254.02 493.99 239.04 Z" />
<path fill="#232021" opacity="1.00" d=" M 51.50 240.01 C 52.39 237.07 52.80 233.72 55.13 231.49 C 51.67 242.57 50.28 254.11 48.27 265.51 C 47.29 270.08 46.39 274.86 43.81 278.84 C 40.85 283.29 34.57 283.40 31.75 288.06 C 31.57 283.06 30.42 277.17 34.10 273.07 C 37.05 269.46 43.10 270.75 45.47 266.48 C 48.49 257.92 49.06 248.73 51.50 240.01 Z" />
<path fill="#232021" opacity="1.00" d=" M 144.57 240.53 C 147.80 237.40 152.03 235.41 154.84 231.79 C 155.09 235.75 155.63 240.01 153.61 243.63 C 150.97 249.04 144.62 250.83 141.18 255.57 C 140.80 250.40 140.69 244.54 144.57 240.53 Z" />
<path fill="#232021" opacity="1.00" d=" M 98.14 246.51 C 99.20 241.99 99.92 236.98 103.15 233.40 C 97.61 252.84 98.86 273.42 102.58 293.07 C 103.41 296.97 104.01 301.79 100.90 304.89 C 98.40 307.37 96.22 310.16 94.72 313.37 C 93.83 308.79 91.82 304.00 93.48 299.35 C 94.41 295.98 97.39 293.85 99.03 290.89 C 100.06 288.78 99.61 286.37 99.35 284.15 C 97.58 271.72 96.13 259.00 98.14 246.51 Z" />
<path fill="#232021" opacity="1.00" d=" M 376.34 233.65 C 378.05 235.58 379.30 238.11 381.81 239.14 C 385.09 240.68 388.78 242.02 390.80 245.25 C 394.20 250.02 393.64 256.13 394.45 261.64 C 390.72 256.97 383.82 256.56 380.62 251.39 C 377.23 246.14 377.65 239.56 376.34 233.65 Z" />
<path fill="#232021" opacity="1.00" d=" M 65.08 236.71 C 74.33 255.46 74.32 276.94 78.97 296.97 C 80.36 302.35 86.66 303.31 89.69 307.37 C 92.98 311.11 93.33 316.28 94.79 320.83 C 92.20 318.35 89.04 316.65 85.76 315.27 C 80.84 313.17 79.55 307.45 78.41 302.76 C 73.92 283.32 70.96 263.55 66.39 244.13 C 65.75 241.70 65.15 239.23 65.08 236.71 Z" />
<path fill="#232021" opacity="1.00" d=" M 301.35 242.04 C 301.39 240.60 301.70 239.20 302.06 237.83 C 303.03 248.60 303.90 259.40 305.94 270.05 C 307.77 280.74 310.32 291.31 311.45 302.11 C 311.95 305.96 310.73 310.13 307.63 312.62 C 305.16 314.58 302.99 316.89 301.28 319.55 C 300.26 314.16 298.25 307.89 302.11 303.11 C 304.95 299.99 309.04 296.76 307.95 291.97 C 305.14 275.43 300.95 258.93 301.35 242.04 Z" />
<path fill="#232021" opacity="1.00" d=" M 521.20 249.22 C 523.92 245.45 526.87 241.65 530.92 239.23 C 529.55 241.68 527.67 243.77 526.00 246.01 C 515.36 260.59 509.66 277.94 504.30 294.97 C 502.49 301.81 494.28 301.54 490.01 306.04 C 491.31 301.63 491.72 296.57 495.20 293.19 C 498.11 289.91 503.62 289.80 505.41 285.40 C 509.92 273.06 513.62 260.14 521.20 249.22 Z" />
<path fill="#232021" opacity="1.00" d=" M 151.87 248.90 C 153.44 247.04 154.64 244.90 155.95 242.85 C 155.65 246.60 155.61 250.49 154.05 253.98 C 152.27 258.61 148.30 262.07 146.96 266.90 C 145.23 272.83 145.66 279.10 146.65 285.11 C 149.44 301.53 152.61 317.89 156.21 334.16 C 156.71 340.81 156.94 347.48 157.50 354.14 C 151.84 339.96 149.19 324.83 146.01 309.97 C 143.76 299.37 142.53 288.58 140.00 278.05 C 138.86 273.69 137.45 269.04 133.94 265.99 C 131.29 263.64 128.39 261.51 126.35 258.57 C 123.54 254.56 122.55 249.65 121.62 244.94 C 124.22 247.49 126.81 250.30 130.40 251.43 C 134.15 252.60 137.64 254.58 140.24 257.57 C 139.69 259.69 139.51 261.87 139.52 264.06 C 140.38 261.78 140.87 259.27 142.51 257.39 C 145.23 254.13 149.15 252.16 151.87 248.90 Z" />
<path fill="#232021" opacity="1.00" d=" M 397.76 253.76 C 400.27 249.21 405.78 247.97 409.41 244.56 C 409.37 247.47 409.38 250.39 409.10 253.30 C 410.46 256.07 409.28 259.25 408.67 262.09 C 407.32 267.60 402.00 270.99 400.70 276.52 C 398.72 283.75 400.15 291.29 401.14 298.56 C 403.65 315.82 407.03 332.93 410.25 350.06 C 409.72 359.75 411.42 369.47 410.31 379.13 C 408.68 372.46 408.04 365.60 406.63 358.89 C 402.05 337.12 398.88 315.08 396.00 293.03 C 395.16 287.79 394.51 282.41 392.33 277.52 C 390.58 273.52 386.61 271.22 384.15 267.73 C 381.15 263.90 380.17 259.01 379.44 254.31 C 381.56 256.92 383.75 259.68 386.96 261.00 C 390.07 262.30 393.22 263.77 395.34 266.51 C 394.86 268.32 394.56 270.17 394.34 272.03 C 395.49 269.73 396.29 267.12 398.39 265.46 C 401.29 263.00 404.78 261.23 407.22 258.24 C 408.69 257.63 407.68 256.47 407.45 255.56 C 404.67 259.80 399.16 260.77 396.18 264.84 C 396.20 261.13 395.59 257.04 397.76 253.76 Z" />
<path fill="#232021" opacity="1.00" d=" M 483.85 251.95 C 483.93 250.79 484.08 249.65 484.37 248.52 C 486.31 262.83 482.40 277.03 479.98 291.03 C 479.43 290.28 478.88 289.52 478.34 288.77 C 480.99 276.65 483.18 264.36 483.85 251.95 Z" />
<path fill="#232021" opacity="1.00" d=" M 550.69 249.09 C 553.22 252.52 557.08 254.24 560.63 256.34 C 566.02 260.21 565.47 267.45 564.92 273.28 C 564.46 273.90 564.02 274.53 563.58 275.16 C 564.52 277.69 564.50 280.39 564.56 283.05 C 561.42 279.79 556.67 278.53 553.99 274.81 C 552.12 272.29 552.77 268.94 552.50 266.03 C 555.52 268.74 560.02 269.66 562.16 273.31 C 562.68 272.86 563.20 272.42 563.73 271.98 C 560.91 268.44 556.04 267.24 553.72 263.27 C 551.02 259.06 551.81 253.77 550.69 249.09 Z" />
<path fill="#232021" opacity="1.00" d=" M 530.01 252.61 C 532.94 255.89 533.89 260.34 535.69 264.25 C 544.62 286.09 550.25 309.33 551.44 332.93 C 551.96 346.94 553.38 361.01 551.86 375.02 C 551.57 376.73 552.05 378.46 552.88 379.96 C 553.19 371.43 555.85 363.25 558.15 355.11 C 560.42 347.14 563.86 339.58 566.89 331.89 C 574.49 313.05 582.05 293.98 585.44 273.85 C 585.72 272.07 586.41 270.38 587.22 268.78 C 584.58 296.86 575.59 323.95 565.08 349.99 C 561.17 361.17 557.54 372.47 552.59 383.26 C 552.61 383.54 552.04 378.84 551.08 380.70 C 550.37 386.07 548.58 391.19 546.29 396.08 C 544.90 398.24 547.12 400.12 547.95 401.98 C 545.48 402.48 542.96 402.64 540.45 402.42 C 543.24 393.86 542.99 384.75 544.12 375.91 C 548.22 340.92 546.45 304.89 536.18 271.07 C 534.41 264.82 531.65 258.89 530.01 252.61 Z" />
<path fill="#232021" opacity="1.00" d=" M 572.45 263.46 C 576.00 262.05 579.19 260.00 581.34 256.76 C 580.13 262.84 581.04 270.40 575.50 274.57 C 572.31 276.56 568.52 277.67 566.03 280.67 C 566.29 274.58 566.22 266.77 572.45 263.46 Z" />
<path fill="#232021" opacity="1.00" d=" M 102.31 268.11 C 102.71 264.52 102.70 260.43 105.38 257.67 C 102.38 274.39 105.23 291.40 107.91 307.96 C 108.84 312.06 107.85 316.75 104.48 319.48 C 101.91 321.54 99.49 323.85 98.11 326.90 C 97.01 322.41 94.65 317.56 96.81 313.00 C 98.25 309.01 103.12 307.82 104.69 303.97 C 105.02 300.60 104.02 297.28 103.62 293.96 C 102.18 285.43 101.88 276.74 102.31 268.11 Z" />
<path fill="#232021" opacity="1.00" d=" M 62.18 261.00 C 72.17 276.90 74.53 296.06 80.60 313.54 C 82.99 318.74 89.74 317.89 93.38 321.65 C 96.76 324.86 97.33 329.74 98.62 333.99 C 96.05 332.15 93.13 330.95 90.00 330.46 C 85.69 329.62 82.22 326.15 80.99 321.98 C 75.33 305.88 72.18 289.02 66.41 272.95 C 65.09 268.93 63.19 265.11 62.18 261.00 Z" />
<path fill="#232021" opacity="1.00" d=" M 515.73 269.87 C 517.63 266.78 519.42 263.24 522.87 261.62 C 517.14 269.68 513.27 278.84 509.63 287.98 C 506.74 295.43 505.11 303.39 501.59 310.58 C 498.47 316.01 491.17 314.79 487.00 318.87 C 488.01 314.45 488.30 309.16 492.20 306.16 C 494.68 303.99 498.19 304.20 501.04 302.82 C 503.28 301.73 503.72 299.05 504.51 296.94 C 507.38 287.59 510.94 278.41 515.73 269.87 Z" />
<path fill="#232021" opacity="1.00" d=" M 246.59 267.77 C 247.24 281.13 244.51 294.43 240.63 307.15 C 230.12 340.26 210.38 369.24 195.48 400.37 C 194.17 403.77 189.79 402.43 187.03 402.50 C 196.10 373.84 213.56 349.00 227.46 322.62 C 236.63 305.49 244.21 287.19 246.59 267.77 Z" />
<path fill="#232021" opacity="1.00" d=" M 309.61 270.94 C 309.46 269.61 309.78 268.33 310.45 267.19 C 311.20 271.06 311.25 275.01 311.77 278.91 C 313.26 292.51 316.06 306.17 314.46 319.89 C 314.14 326.60 306.92 328.91 304.06 334.22 C 303.64 332.53 303.36 330.81 302.83 329.16 C 300.05 326.51 296.81 324.29 293.02 323.42 C 286.26 321.30 283.34 314.23 280.77 308.27 C 276.69 297.76 273.17 287.00 268.14 276.90 C 271.10 279.10 272.41 282.68 273.98 285.88 C 277.13 293.12 279.34 300.81 283.24 307.71 C 286.17 311.80 292.06 310.22 295.67 313.25 C 299.77 316.37 300.77 321.88 300.80 326.74 C 301.25 327.01 302.15 327.55 302.60 327.82 C 302.23 323.72 302.95 319.05 306.28 316.26 C 309.13 313.79 313.33 311.39 312.82 306.99 C 312.62 294.91 309.94 283.02 309.61 270.94 Z" />
<path fill="#232021" opacity="1.00" d=" M 194.53 270.47 C 196.39 272.92 197.87 275.79 200.56 277.46 C 203.62 279.42 206.54 281.97 207.64 285.57 C 209.57 291.15 207.30 296.93 206.21 302.43 C 204.86 299.70 203.56 296.80 201.01 294.94 C 197.54 292.30 194.47 288.61 194.16 284.08 C 193.93 279.54 194.54 275.01 194.53 270.47 Z" />
<path fill="#232021" opacity="1.00" d=" M 77.28 274.18 C 77.85 273.46 78.41 272.75 78.98 272.03 C 79.67 275.63 79.76 279.42 81.04 282.87 C 83.33 285.89 86.94 287.79 88.60 291.34 C 91.38 295.60 90.45 300.86 90.92 305.65 C 87.32 302.04 81.14 300.56 79.96 294.96 C 78.94 288.06 78.40 281.08 77.28 274.18 Z" />
<path fill="#232021" opacity="1.00" d=" M 49.15 314.00 C 50.67 300.52 54.08 287.05 60.74 275.15 C 52.17 297.10 54.45 321.04 54.84 344.06 C 55.40 363.49 55.00 384.00 45.75 401.60 L 44.38 402.73 C 45.46 395.47 46.69 388.23 47.17 380.90 C 48.66 358.62 46.65 336.22 49.15 314.00 Z" />
<path fill="#232021" opacity="1.00" d=" M 573.60 279.53 C 575.80 278.45 577.36 276.48 579.10 274.80 C 578.45 278.99 577.53 283.40 574.77 286.76 C 572.83 289.19 569.74 290.60 568.43 293.54 C 565.76 299.00 565.22 305.16 564.49 311.11 C 562.25 329.13 558.89 347.02 554.64 364.67 C 554.12 361.46 554.66 358.23 554.70 355.01 C 554.87 350.64 554.51 346.22 555.45 341.92 C 557.74 329.65 559.69 317.31 561.29 304.93 C 561.79 298.80 561.68 291.77 557.20 287.01 C 554.02 283.63 552.73 279.07 552.24 274.56 C 555.77 280.32 563.39 282.07 565.91 288.53 C 566.00 288.51 566.18 288.48 566.27 288.46 C 566.06 287.02 565.05 285.54 565.62 284.12 C 567.72 281.75 570.86 280.91 573.60 279.53 Z" />
<path fill="#232021" opacity="1.00" d=" M 474.88 286.60 C 475.43 282.91 475.36 279.10 476.46 275.51 C 477.67 281.88 476.12 288.38 475.43 294.74 C 475.92 295.47 476.43 296.19 476.94 296.92 C 477.02 295.09 477.35 293.33 477.93 291.65 C 478.74 290.27 480.01 292.68 480.76 292.82 C 481.12 290.26 481.62 287.72 482.03 285.18 C 482.56 285.80 483.10 286.44 483.64 287.07 C 484.07 291.56 487.89 294.67 488.58 299.06 C 489.43 303.43 487.82 307.69 486.92 311.91 C 485.73 308.74 483.63 306.10 481.55 303.48 C 479.24 300.56 479.74 296.58 480.45 293.20 L 479.40 293.12 C 478.96 296.66 477.30 300.56 479.15 303.97 C 481.01 306.94 484.31 308.94 485.39 312.42 C 486.65 316.52 485.18 320.75 484.41 324.79 C 481.87 320.02 475.75 317.77 474.97 312.01 C 474.55 307.35 475.95 302.74 476.62 298.15 C 476.08 297.49 475.55 296.83 475.03 296.17 C 474.83 302.47 473.27 308.73 473.80 315.05 C 475.27 319.56 480.90 320.89 482.35 325.43 C 484.18 329.83 482.36 334.51 481.84 338.96 C 480.43 336.54 478.73 334.29 476.45 332.63 C 473.64 330.64 472.07 327.36 471.86 323.98 C 470.67 311.43 473.45 299.01 474.88 286.60 Z" />
<path fill="#232021" opacity="1.00" d=" M 36.36 286.24 C 39.98 284.43 43.87 283.02 46.50 279.73 C 45.41 285.39 46.71 292.53 41.45 296.43 C 38.14 298.33 34.77 300.21 32.56 303.45 C 32.16 297.63 30.71 290.11 36.36 286.24 Z" />
<path fill="#232021" opacity="1.00" d=" M 512.18 289.99 C 513.81 286.69 515.16 282.99 518.24 280.73 C 517.26 283.39 515.72 285.79 514.51 288.34 C 509.87 297.82 506.90 308.01 502.47 317.58 C 501.05 320.36 499.60 323.21 497.39 325.44 C 493.72 329.23 487.63 328.69 484.18 332.86 C 485.27 328.15 485.25 322.49 489.41 319.24 C 492.88 316.06 498.92 317.87 501.68 313.68 C 505.79 306.07 508.81 297.94 512.18 289.99 Z" />
<path fill="#232021" opacity="1.00" d=" M 109.44 282.84 C 110.41 285.10 109.94 287.58 109.99 289.96 C 110.10 301.33 113.11 312.56 112.37 323.96 C 112.19 327.91 110.33 331.69 107.26 334.19 C 104.95 335.96 103.49 338.48 102.40 341.13 C 101.08 336.41 98.33 331.34 100.56 326.44 C 102.15 321.98 107.80 321.00 109.56 316.66 C 111.08 305.43 106.49 293.97 109.44 282.84 Z" />
<path fill="#232021" opacity="1.00" d=" M 15.13 284.10 C 16.61 286.13 17.75 288.60 20.10 289.79 C 23.02 291.44 26.33 292.83 28.20 295.78 C 31.32 299.94 30.95 305.37 31.63 310.27 C 28.79 307.25 24.98 305.59 21.59 303.35 C 15.77 298.75 16.31 290.70 15.13 284.10 Z" />
<path fill="#232021" opacity="1.00" d=" M 222.90 289.78 C 225.39 289.04 226.88 286.75 228.72 285.07 C 226.23 291.93 225.71 300.65 218.82 304.78 C 214.64 306.85 209.65 307.20 206.16 310.64 C 207.78 305.10 208.08 298.69 212.50 294.46 C 215.19 291.48 219.29 290.96 222.90 289.78 Z" />
<path fill="#232021" opacity="1.00" d=" M 363.08 284.78 C 377.93 290.03 386.72 304.49 393.06 318.04 C 400.13 335.35 405.34 353.64 406.53 372.37 C 394.65 350.31 390.70 324.81 377.88 303.17 C 374.02 296.22 368.50 290.49 363.08 284.78 Z" />
<path fill="#232021" opacity="1.00" d=" M 118.87 292.40 C 118.71 290.93 118.65 289.46 118.61 287.99 C 127.36 327.96 143.29 365.97 162.14 402.16 C 159.83 402.42 156.81 403.28 155.24 400.97 C 144.49 386.17 136.68 369.37 131.08 352.00 C 124.86 332.64 121.51 312.52 118.87 292.40 Z" />
<path fill="#232021" opacity="1.00" d=" M 558.40 402.17 C 577.19 366.10 592.04 327.74 600.00 287.79 L 600.00 294.45 C 598.80 298.79 598.61 303.32 598.07 307.77 C 595.82 326.75 592.30 345.69 585.84 363.73 C 581.11 377.27 574.59 390.15 566.79 402.18 C 563.99 402.19 561.19 402.19 558.40 402.17 Z" />
<path fill="#232021" opacity="1.00" d=" M 67.08 290.65 C 68.13 291.99 69.02 293.46 69.68 295.04 C 73.68 304.53 76.55 314.44 80.50 323.95 C 81.48 326.05 82.34 328.30 83.95 330.02 C 87.46 333.00 92.74 331.82 96.30 334.75 C 100.72 337.82 101.56 343.46 103.11 348.22 C 100.64 346.51 97.91 345.14 94.89 344.82 C 90.96 344.38 87.68 341.74 85.67 338.45 C 78.06 326.75 74.76 313.01 69.98 300.06 C 68.95 296.95 67.30 293.98 67.08 290.65 Z" />
<path fill="#232021" opacity="1.00" d=" M 193.19 290.24 C 195.57 293.75 199.14 296.07 202.09 299.02 C 205.62 302.87 204.96 308.42 204.09 313.14 C 201.55 309.42 197.17 307.50 194.85 303.64 C 194.33 304.08 193.82 304.52 193.30 304.96 C 197.12 310.34 204.31 313.61 204.72 320.96 C 204.75 318.92 204.77 316.87 204.75 314.83 C 207.40 312.58 210.57 311.10 213.94 310.33 C 217.40 309.59 220.10 307.19 222.76 305.03 C 221.14 310.11 219.01 315.29 215.03 319.00 C 212.40 321.55 208.62 322.78 206.64 326.00 C 201.74 333.32 200.19 342.14 197.70 350.43 C 192.65 367.68 187.97 385.05 182.11 402.04 C 180.23 402.10 178.34 402.17 176.46 402.24 C 182.04 385.36 187.79 368.53 192.68 351.42 C 195.13 342.44 198.77 333.38 197.57 323.89 C 197.31 319.52 193.98 316.30 192.47 312.38 C 190.93 308.83 191.46 304.88 190.95 301.15 C 191.87 301.78 192.79 302.41 193.74 303.02 C 191.89 298.91 192.48 294.50 193.19 290.24 Z" />
<path fill="#232021" opacity="1.00" d=" M 34.31 304.36 C 36.44 300.17 41.58 299.42 45.15 296.93 C 45.07 299.85 45.68 303.13 43.72 305.62 C 41.02 309.14 36.27 309.96 33.10 312.96 C 33.25 310.09 32.72 306.93 34.31 304.36 Z" />
<path fill="#232021" opacity="1.00" d=" M 526.02 307.10 C 529.65 303.66 534.03 301.04 538.79 299.49 C 527.53 308.20 520.55 320.98 514.46 333.56 C 504.33 354.88 498.05 377.72 491.22 400.23 C 490.74 403.64 486.51 402.09 484.19 402.38 C 489.51 380.05 496.50 358.05 506.25 337.25 C 511.46 326.41 517.16 315.44 526.02 307.10 Z" />
<path fill="#232021" opacity="1.00" d=" M 178.24 300.80 C 183.19 307.88 185.32 316.55 186.43 325.01 C 188.93 347.41 184.66 370.09 177.49 391.29 C 176.67 384.18 177.30 377.00 177.72 369.88 C 179.26 351.69 181.62 333.42 180.08 315.15 C 179.72 310.33 178.61 305.61 178.24 300.80 Z" />
<path fill="#232021" opacity="1.00" d=" M 17.93 303.00 C 19.90 305.35 21.85 307.87 24.71 309.18 C 27.56 310.51 30.42 311.99 32.44 314.48 C 32.07 315.98 31.71 317.49 31.38 319.00 C 32.81 316.56 34.23 313.94 36.89 312.63 C 40.29 310.87 43.13 308.32 45.57 305.39 C 45.03 308.39 44.93 311.65 43.25 314.30 C 41.51 317.28 38.47 319.47 37.55 322.93 C 36.00 328.17 36.49 333.76 37.38 339.08 C 39.49 352.06 42.02 364.96 44.59 377.86 C 45.86 383.64 44.53 389.55 43.91 395.34 C 42.85 393.33 41.79 391.27 41.40 389.02 C 38.70 374.75 36.57 360.38 34.29 346.05 C 33.03 338.25 32.79 330.01 29.04 322.87 C 27.80 320.27 25.20 318.77 23.33 316.68 C 19.85 313.01 18.45 307.91 17.93 303.00 Z" />
<path fill="#232021" opacity="1.00" d=" M 249.17 303.24 C 253.65 304.41 257.85 306.59 261.38 309.58 C 269.31 316.20 274.98 325.02 279.89 334.00 C 291.66 355.50 300.00 378.70 306.59 402.25 C 304.41 402.23 302.24 402.20 300.07 402.13 C 291.01 375.27 282.55 347.76 267.44 323.53 C 262.56 315.81 256.88 308.33 249.17 303.24 Z" />
<path fill="#232021" opacity="1.00" d=" M 12.24 305.87 C 21.22 329.09 32.98 351.51 37.45 376.22 C 38.87 385.16 41.02 393.96 43.98 402.52 C 42.96 402.35 40.93 402.01 39.91 401.85 C 39.34 399.71 39.25 397.46 38.40 395.41 C 30.71 377.70 25.43 359.09 19.22 340.84 C 15.94 329.42 13.04 317.75 12.24 305.87 Z" />
<path fill="#232021" opacity="1.00" d=" M 366.49 309.62 C 370.08 307.74 373.94 309.69 377.07 311.55 C 374.48 311.13 371.49 310.34 369.30 312.31 C 364.15 316.38 361.91 322.92 359.89 328.92 C 352.60 352.60 355.43 377.60 354.52 401.96 C 352.96 402.09 351.39 402.22 349.83 402.36 C 347.80 376.92 346.80 350.59 354.97 326.05 C 357.34 319.84 360.16 312.73 366.49 309.62 Z" />
<path fill="#232021" opacity="1.00" d=" M 372.20 317.98 C 387.71 344.18 402.38 371.79 407.36 402.17 C 403.76 402.67 400.12 402.57 396.55 401.92 C 391.67 373.13 383.56 344.89 372.20 317.98 Z" />
<path fill="#232021" opacity="1.00" d=" M 464.88 318.14 C 453.20 340.83 443.41 365.32 442.38 391.11 C 446.86 379.22 451.54 367.33 457.67 356.17 C 452.71 370.95 448.32 386.22 448.86 401.99 C 442.94 402.83 436.94 402.96 431.01 402.17 C 434.24 382.76 439.16 363.46 447.35 345.50 C 451.92 335.66 457.66 326.27 464.88 318.14 Z" />
<path fill="#232021" opacity="1.00" d=" M 285.03 321.18 C 286.94 322.45 288.64 324.17 290.91 324.78 C 293.84 325.68 297.10 326.33 299.25 328.73 C 303.07 332.58 302.93 338.39 303.80 343.38 C 301.18 339.76 296.84 338.80 293.09 336.93 C 287.50 333.64 287.22 326.61 285.03 321.18 Z" />
<path fill="#232021" opacity="1.00" d=" M 0.00 321.48 C 0.17 322.63 0.38 323.78 0.62 324.93 C 1.44 326.56 2.16 328.24 2.71 329.99 C 10.22 355.14 21.03 379.21 33.66 402.18 C 30.49 402.19 27.33 402.19 24.17 402.19 C 13.90 383.17 7.54 362.29 3.46 341.14 C 2.33 335.74 1.71 330.22 0.00 324.95 L 0.00 321.48 Z" />
<path fill="#232021" opacity="1.00" d=" M 321.41 321.97 C 331.39 347.39 330.25 375.46 326.86 402.08 C 323.46 402.77 319.97 402.73 316.56 402.12 C 320.62 380.84 325.74 359.31 323.88 337.49 C 323.45 332.26 322.42 327.11 321.41 321.97 Z" />
<path fill="#232021" opacity="1.00" d=" M 309.23 331.25 C 312.43 329.19 315.20 326.61 316.43 322.91 C 316.34 329.18 318.71 336.70 313.92 341.84 C 311.21 344.24 308.15 346.26 306.01 349.24 C 305.28 343.19 303.72 335.61 309.23 331.25 Z" />
<path fill="#232021" opacity="1.00" d=" M 59.88 402.05 C 57.61 376.65 57.25 349.91 67.41 326.02 C 63.24 349.46 61.87 373.83 67.37 397.17 C 68.25 388.41 68.80 379.59 70.55 370.95 C 70.67 381.45 71.20 392.03 73.98 402.22 C 69.28 402.55 64.56 402.54 59.88 402.05 Z" />
<path fill="#232021" opacity="1.00" d=" M 488.06 331.96 C 491.91 330.10 496.36 329.57 499.73 326.69 C 498.25 330.28 497.57 334.20 495.69 337.61 C 493.06 342.09 487.44 342.47 483.40 345.04 C 483.88 345.46 484.38 345.88 484.88 346.31 C 487.90 344.26 491.61 343.76 494.89 342.27 C 494.09 344.84 494.01 347.89 491.98 349.89 C 488.83 353.02 484.00 352.95 480.39 355.33 C 481.03 352.21 482.00 349.14 483.92 346.54 C 483.35 346.63 482.20 346.81 481.63 346.89 C 482.92 341.68 482.83 335.07 488.06 331.96 Z" />
<path fill="#232021" opacity="1.00" d=" M 360.03 357.00 C 361.44 346.86 363.75 336.61 368.86 327.63 C 364.90 352.29 365.94 377.43 368.58 402.18 C 365.88 402.24 363.20 402.25 360.51 402.20 C 358.50 387.23 358.09 372.00 360.03 357.00 Z" />
<path fill="#232021" opacity="1.00" d=" M 106.07 338.09 C 108.92 334.89 112.58 332.41 114.37 328.35 C 114.92 333.87 117.81 339.96 114.38 345.10 C 111.89 348.43 108.21 350.99 107.38 355.35 C 105.25 349.98 102.26 343.44 106.07 338.09 Z" />
<path fill="#232021" opacity="1.00" d=" M 469.99 328.17 C 471.51 332.10 475.23 334.09 478.07 336.89 C 481.99 341.32 480.26 347.55 479.68 352.80 C 477.14 348.23 471.11 346.43 469.90 341.04 C 469.03 336.80 469.96 332.45 469.99 328.17 Z" />
<path fill="#232021" opacity="1.00" d=" M 462.32 402.01 C 458.42 378.54 457.37 353.96 464.63 331.01 C 464.22 336.68 463.06 342.29 463.13 348.00 C 462.79 366.46 467.50 384.45 471.85 402.24 C 468.68 402.71 465.44 402.87 462.32 402.01 Z" />
<path fill="#232021" opacity="1.00" d=" M 250.35 334.63 C 254.34 332.86 258.64 334.46 262.14 336.55 C 258.82 336.16 255.12 335.39 252.15 337.41 C 246.37 341.12 243.40 347.69 240.85 353.81 C 235.02 368.98 232.28 385.09 229.42 401.02 C 234.35 389.29 237.42 376.15 246.56 366.78 C 241.15 377.82 238.88 390.07 237.03 402.14 C 231.14 402.67 225.22 402.55 219.31 402.44 C 223.71 384.70 228.24 366.77 236.44 350.35 C 239.76 344.21 243.64 337.51 250.35 334.63 Z" />
<path fill="#232021" opacity="1.00" d=" M 498.16 401.87 C 509.56 380.74 518.31 358.22 524.45 335.02 C 521.68 355.97 516.37 376.46 511.35 396.95 C 520.23 383.42 527.46 368.89 535.75 355.00 C 531.51 365.38 526.74 375.54 522.61 385.97 C 520.49 391.39 517.62 396.52 515.96 402.12 C 510.05 402.90 504.04 402.76 498.16 401.87 Z" />
<path fill="#232021" opacity="1.00" d=" M 371.63 336.39 C 371.80 336.38 372.13 336.36 372.29 336.35 C 377.58 358.60 383.63 380.67 389.96 402.65 C 387.83 402.43 385.72 402.18 383.60 401.92 C 379.03 380.20 373.51 358.56 371.63 336.39 Z" />
<path fill="#232021" opacity="1.00" d=" M 290.05 338.14 C 294.00 340.20 299.14 340.26 302.11 343.93 C 304.26 346.16 304.45 349.42 305.16 352.27 C 301.57 349.75 296.76 349.64 293.46 346.68 C 290.95 344.57 290.88 341.06 290.05 338.14 Z" />
<path fill="#232021" opacity="1.00" d=" M 312.51 347.41 C 314.83 345.78 316.15 343.23 317.67 340.93 C 317.73 345.18 317.78 349.70 315.71 353.55 C 314.27 356.44 311.51 358.62 310.92 361.91 C 309.79 366.88 310.14 372.03 310.54 377.06 C 311.39 385.42 311.75 393.81 312.46 402.18 C 311.10 402.10 309.75 402.02 308.40 401.95 C 307.91 392.94 307.31 383.93 306.53 374.95 C 305.83 368.78 304.38 361.83 299.00 358.00 C 295.16 355.33 292.76 351.20 291.57 346.74 C 294.52 349.17 297.75 351.22 301.40 352.42 C 304.28 353.29 306.27 355.56 307.94 357.93 C 307.37 356.34 306.70 354.78 306.30 353.14 C 307.80 350.67 310.22 349.06 312.51 347.41 Z" />
<path fill="#232021" opacity="1.00" d=" M 86.05 343.20 C 87.93 344.42 89.58 346.28 91.92 346.57 C 95.17 347.18 98.77 347.32 101.40 349.60 C 105.28 352.59 106.34 357.62 108.20 361.89 C 103.47 358.96 96.98 360.36 92.98 356.10 C 89.51 352.54 88.32 347.50 86.05 343.20 Z" />
<path fill="#232021" opacity="1.00" d=" M 82.71 364.25 C 79.57 358.11 77.12 351.17 78.07 344.19 C 80.05 352.42 84.62 359.70 89.60 366.43 C 99.30 379.30 111.05 390.47 123.20 400.99 C 119.03 392.50 116.20 383.17 110.27 375.66 C 107.76 372.17 103.12 371.69 99.97 369.02 C 97.01 366.60 95.05 363.23 93.50 359.80 C 94.93 360.55 96.33 361.40 97.81 362.08 C 101.18 363.64 105.15 362.97 108.49 364.62 C 110.78 365.35 110.06 368.21 110.47 370.07 C 110.88 363.00 117.93 359.51 120.42 353.33 C 121.15 357.61 121.06 362.16 118.83 366.01 C 116.01 370.90 117.27 376.88 119.11 381.89 C 121.92 388.76 125.26 395.39 128.51 402.07 C 122.94 402.30 115.77 404.33 111.70 399.31 C 100.97 388.61 89.97 377.71 82.71 364.25 Z" />
<path fill="#232021" opacity="1.00" d=" M 109.30 355.02 C 110.51 350.63 114.94 348.42 117.56 344.98 C 118.22 347.77 119.92 350.70 118.61 353.55 C 116.96 357.80 112.65 360.14 110.18 363.86 C 109.58 360.98 108.23 357.96 109.30 355.02 Z" />
<path fill="#232021" opacity="1.00" d=" M 468.77 344.77 C 471.02 349.97 476.77 351.91 479.60 356.59 C 478.96 357.74 478.35 358.89 477.77 360.06 C 481.84 354.97 488.99 354.77 493.50 350.20 C 492.29 352.92 491.43 356.00 489.25 358.16 C 486.93 360.52 483.77 362.14 482.21 365.18 C 479.94 369.41 479.13 374.22 478.72 378.95 C 478.11 386.58 477.35 394.20 477.06 401.85 C 476.08 401.94 474.11 402.10 473.13 402.18 C 473.77 393.42 474.53 384.66 475.41 375.92 C 475.72 370.20 476.29 363.58 472.13 359.00 C 468.86 355.05 468.47 349.68 468.77 344.77 Z" />
<path fill="#232021" opacity="1.00" d=" M 261.04 349.92 C 260.67 361.04 258.88 372.05 257.09 383.02 C 255.92 389.35 254.92 395.75 253.07 401.92 C 249.91 403.41 246.41 402.48 243.14 402.06 C 247.64 389.34 252.97 376.92 256.95 364.02 C 258.49 359.37 259.41 354.54 261.04 349.92 Z" />
<path fill="#232021" opacity="1.00" d=" M 571.61 352.14 C 567.88 363.46 563.59 374.60 558.71 385.46 C 556.72 390.17 553.93 395.59 548.39 396.64 C 549.37 393.47 551.10 390.63 552.74 387.77 C 559.06 375.91 565.01 363.85 571.61 352.14 Z" />
<path fill="#232021" opacity="1.00" d=" M 134.48 401.89 C 129.05 386.28 125.29 369.76 126.15 353.15 C 127.59 370.50 134.22 386.90 142.36 402.13 C 139.73 402.62 137.06 402.59 134.48 401.89 Z" />
<path fill="#232021" opacity="1.00" d=" M 419.37 402.24 C 420.85 387.79 424.52 373.13 432.53 360.84 C 429.19 374.27 427.15 388.47 430.39 402.13 C 426.75 402.87 423.02 402.91 419.37 402.24 Z" />
<path fill="#232021" opacity="1.00" d=" M 206.96 402.37 C 209.51 390.80 214.00 379.52 220.81 369.79 C 217.84 380.34 215.26 391.16 215.49 402.21 C 212.65 402.37 209.80 402.42 206.96 402.37 Z" />
<path fill="#232021" opacity="1.00" d=" M 78.94 370.98 C 87.01 382.73 97.26 392.76 108.21 401.82 C 104.55 402.91 99.56 403.68 97.04 400.04 C 89.85 391.16 83.87 381.26 78.94 370.98 Z" />
<path fill="#232021" opacity="1.00" d=" M 276.28 370.86 C 287.79 377.63 294.04 390.27 299.22 402.07 C 297.18 402.21 295.15 402.35 293.12 402.47 C 288.86 391.27 282.69 380.93 276.28 370.86 Z" />
<path fill="#232021" opacity="1.00" d=" M 255.15 402.10 C 259.05 392.70 263.33 383.36 268.89 374.82 C 265.88 383.85 262.58 392.80 259.71 401.89 C 258.19 401.96 256.67 402.03 255.15 402.10 Z" />
<path fill="#232021" opacity="1.00" d=" M 518.68 402.05 C 524.15 393.36 530.21 384.49 539.04 378.90 C 534.60 386.17 529.61 393.10 525.74 400.72 C 524.58 403.68 521.01 402.34 518.68 402.05 Z" />
<path fill="#232021" opacity="1.00" d=" M 79.25 381.77 C 79.63 386.35 79.53 390.96 80.21 395.51 C 80.45 397.99 81.16 400.55 80.31 403.00 L 78.94 403.00 L 79.63 402.99 C 77.37 396.19 77.98 388.72 79.25 381.77 Z" />
<path fill="#232021" opacity="1.00" d=" M 370.38 382.13 C 373.39 388.81 376.13 395.62 378.71 402.47 C 375.30 402.82 375.10 399.45 374.30 397.11 C 372.84 392.16 371.16 387.25 370.38 382.13 Z" />
<path fill="#232021" opacity="1.00" d=" M 263.65 402.17 C 267.74 395.43 271.92 388.57 277.73 383.15 C 274.75 389.42 272.08 395.83 268.97 402.03 C 267.24 402.50 265.42 402.18 263.65 402.17 Z" />
<path fill="#232021" opacity="1.00" d=" M 451.08 402.39 C 452.36 396.34 454.92 390.49 458.93 385.74 C 457.24 391.00 456.00 396.38 455.12 401.84 C 454.11 401.97 452.09 402.25 451.08 402.39 Z" />
<path fill="#232021" opacity="1.00" d=" M 51.59 391.39 C 53.28 394.94 54.80 398.57 56.26 402.23 C 53.51 402.59 50.74 402.45 48.02 401.99 C 49.20 398.45 50.39 394.92 51.59 391.39 Z" />
</g>
</svg>
